<?xml version="1.0" encoding="UTF-8" standalone="no"?>
<!-- Created with Inkscape (http://www.inkscape.org/) -->

<svg
   xmlns:dc="http://purl.org/dc/elements/1.1/"
   xmlns:cc="http://creativecommons.org/ns#"
   xmlns:rdf="http://www.w3.org/1999/02/22-rdf-syntax-ns#"
   xmlns:svg="http://www.w3.org/2000/svg"
   xmlns="http://www.w3.org/2000/svg"
   xmlns:sodipodi="http://sodipodi.sourceforge.net/DTD/sodipodi-0.dtd"
   xmlns:inkscape="http://www.inkscape.org/namespaces/inkscape"
   width="210mm"
   height="297mm"
   id="svg2"
   version="1.1"
   inkscape:version="0.48.5 r10040"
   sodipodi:docname="Zeichnung.eps">
  <defs
     id="defs4">
    <inkscape:perspective
       sodipodi:type="inkscape:persp3d"
       inkscape:vp_x="0 : 526.18109 : 1"
       inkscape:vp_y="0 : 1000 : 0"
       inkscape:vp_z="744.09448 : 526.18109 : 1"
       inkscape:persp3d-origin="372.04724 : 350.78739 : 1"
       id="perspective4243" />
    <clipPath
       id="clipPath3117"
       clipPathUnits="userSpaceOnUse">
      <path
         id="path3119"
         d="M 0,0 28,0 28,22 0,22 0,0 z" />
    </clipPath>
    <clipPath
       id="clipPath3180"
       clipPathUnits="userSpaceOnUse">
      <path
         id="path3182"
         d="M 0,0 28,0 28,22 0,22 0,0 z" />
    </clipPath>
    <clipPath
       id="clipPath3237"
       clipPathUnits="userSpaceOnUse">
      <path
         id="path3239"
         d="M 0,0 8,0 8,7 0,7 0,0 z" />
    </clipPath>
    <clipPath
       id="clipPath3231"
       clipPathUnits="userSpaceOnUse">
      <path
         id="path3233"
         d="m 0,0.0371094 8,0 0,6.3000006 -8,0 0,-6.3000006 z" />
    </clipPath>
    <clipPath
       id="clipPath3316"
       clipPathUnits="userSpaceOnUse">
      <path
         id="path3318"
         d="M 0,0 8,0 8,7 0,7 0,0 z" />
    </clipPath>
    <clipPath
       id="clipPath3310"
       clipPathUnits="userSpaceOnUse">
      <path
         id="path3312"
         d="m 0,0.0371094 8,0 0,6.3000006 -8,0 0,-6.3000006 z" />
    </clipPath>
    <clipPath
       id="clipPath3376"
       clipPathUnits="userSpaceOnUse">
      <path
         id="path3378"
         d="M 0,0 8,0 8,7 0,7 0,0 z" />
    </clipPath>
    <clipPath
       id="clipPath3370"
       clipPathUnits="userSpaceOnUse">
      <path
         id="path3372"
         d="m 0,0.0371094 8,0 L 8,7 0,7 0,0.0371094 z" />
    </clipPath>
    <clipPath
       id="clipPath3436"
       clipPathUnits="userSpaceOnUse">
      <path
         id="path3438"
         d="M 0,0 8,0 8,7 0,7 0,0 z" />
    </clipPath>
    <clipPath
       id="clipPath3430"
       clipPathUnits="userSpaceOnUse">
      <path
         id="path3432"
         d="m 0,0.0371094 8,0 L 8,7 0,7 0,0.0371094 z" />
    </clipPath>
    <clipPath
       id="clipPath3412"
       clipPathUnits="userSpaceOnUse">
      <path
         id="path3414"
         d="M 0,0 112,0 112,34 0,34 0,0 z" />
    </clipPath>
    <clipPath
       id="clipPath3475"
       clipPathUnits="userSpaceOnUse">
      <path
         id="path3477"
         d="M 0,0 32,0 32,11 0,11 0,0 z" />
    </clipPath>
    <clipPath
       id="clipPath3469"
       clipPathUnits="userSpaceOnUse">
      <path
         id="path3471"
         d="m 0,0 31.9441,0 0,11 L 0,11 0,0 z" />
    </clipPath>
    <clipPath
       id="clipPath3541"
       clipPathUnits="userSpaceOnUse">
      <path
         id="path3543"
         d="M 0,0 5,0 5,7 0,7 0,0 z" />
    </clipPath>
    <clipPath
       id="clipPath3535"
       clipPathUnits="userSpaceOnUse">
      <path
         id="path3537"
         d="m 0,0.0371094 5,0 L 5,7 0,7 0,0.0371094 z" />
    </clipPath>
    <clipPath
       id="clipPath3598"
       clipPathUnits="userSpaceOnUse">
      <path
         id="path3600"
         d="M 0,0 14,0 14,10 0,10 0,0 z" />
    </clipPath>
    <clipPath
       id="clipPath3592"
       clipPathUnits="userSpaceOnUse">
      <path
         id="path3594"
         d="M 0.944141,0 14,0 l 0,10 -13.055859,0 0,-10 z" />
    </clipPath>
    <clipPath
       id="clipPath4847"
       clipPathUnits="userSpaceOnUse">
      <path
         id="path4849"
         d="M 0,0 8,0 8,7 0,7 0,0 z" />
    </clipPath>
    <clipPath
       id="clipPath4841"
       clipPathUnits="userSpaceOnUse">
      <path
         id="path4843"
         d="m 0,0.0371094 8,0 L 8,7 0,7 0,0.0371094 z" />
    </clipPath>
    <clipPath
       id="clipPath4907"
       clipPathUnits="userSpaceOnUse">
      <path
         id="path4909"
         d="M 0,0 8,0 8,7 0,7 0,0 z" />
    </clipPath>
    <clipPath
       id="clipPath4901"
       clipPathUnits="userSpaceOnUse">
      <path
         id="path4903"
         d="m 0,0.0371094 8,0 0,6.3000006 -8,0 0,-6.3000006 z" />
    </clipPath>
    <clipPath
       id="clipPath4967"
       clipPathUnits="userSpaceOnUse">
      <path
         id="path4969"
         d="M 0,0 8,0 8,7 0,7 0,0 z" />
    </clipPath>
    <clipPath
       id="clipPath4961"
       clipPathUnits="userSpaceOnUse">
      <path
         id="path4963"
         d="m 0,0.0371094 8,0 0,6.3000006 -8,0 0,-6.3000006 z" />
    </clipPath>
    <clipPath
       id="clipPath4617"
       clipPathUnits="userSpaceOnUse">
      <path
         id="path4619"
         d="M 0,0 66,0 66,7 0,7 0,0 z" />
    </clipPath>
    <clipPath
       id="clipPath4611"
       clipPathUnits="userSpaceOnUse">
      <path
         id="path4613"
         d="m 0,0.0371094 65.6441,0 L 65.6441,7 0,7 0,0.0371094 z" />
    </clipPath>
    <clipPath
       id="clipPath4701"
       clipPathUnits="userSpaceOnUse">
      <path
         id="path4703"
         d="M 0,0 102,0 102,11 0,11 0,0 z" />
    </clipPath>
    <clipPath
       id="clipPath4695"
       clipPathUnits="userSpaceOnUse">
      <path
         id="path4697"
         d="M 0,0.4 102,0.4 102,11 0,11 0,0.4 z" />
    </clipPath>
  </defs>
  <sodipodi:namedview
     id="base"
     pagecolor="#ffffff"
     bordercolor="#666666"
     borderopacity="1.0"
     inkscape:pageopacity="0.0"
     inkscape:pageshadow="2"
     inkscape:zoom="1.979899"
     inkscape:cx="194.24978"
     inkscape:cy="570.25966"
     inkscape:document-units="px"
     inkscape:current-layer="layer1"
     showgrid="false"
     inkscape:snap-to-guides="false"
     inkscape:window-width="1233"
     inkscape:window-height="681"
     inkscape:window-x="21"
     inkscape:window-y="56"
     inkscape:window-maximized="0"
     inkscape:snap-smooth-nodes="true"
     inkscape:snap-midpoints="true"
     inkscape:object-paths="true">
    <inkscape:grid
       type="xygrid"
       id="grid2985" />
  </sodipodi:namedview>
  <metadata
     id="metadata7">
    <rdf:RDF>
      <cc:Work
         rdf:about="">
        <dc:format>image/svg+xml</dc:format>
        <dc:type
           rdf:resource="http://purl.org/dc/dcmitype/StillImage" />
        <dc:title></dc:title>
      </cc:Work>
    </rdf:RDF>
  </metadata>
  <g
     inkscape:label="Ebene 1"
     inkscape:groupmode="layer"
     id="layer1">
    <path
       sodipodi:type="star"
       style="opacity:0.02999998;fill:none"
       id="path2987"
       sodipodi:sides="5"
       sodipodi:cx="280"
       sodipodi:cy="472.36218"
       sodipodi:r1="14.142136"
       sodipodi:r2="8.1196468"
       sodipodi:arg1="-2.3561945"
       sodipodi:arg2="-1.727876"
       inkscape:flatsided="false"
       inkscape:rounded="0"
       inkscape:randomized="0"
       d="m 270,462.36218 8.72981,1.98032 7.69059,-4.58105 0.81426,8.91449 6.73336,5.89856 -8.22656,3.52914 -3.52914,8.22657 -5.89856,-6.73337 -8.9145,-0.81426 4.58106,-7.69059 z"
       inkscape:transform-center-x="-0.68364368"
       inkscape:transform-center-y="0.68364368" />
    <path
       style="fill:none;stroke:#000000;stroke-width:1;stroke-linecap:butt;stroke-linejoin:miter;stroke-miterlimit:4;stroke-opacity:1;stroke-dasharray:1, 2;stroke-dashoffset:0"
       d="m 200,562.36218 c -2.0613,-30 0.6213,-60 10,-90 13.95291,-24.79337 35.55712,-43.85021 60,-60 30.3007,9.07894 51.09672,25.21857 70,40 8.59929,21.57801 9.86167,45.60166 10,70 -9.3946,20.90871 -29.39474,35.63085 -50,50 -33.33333,1.45206 -66.66667,-1.9283 -100,-10 z"
       id="path3009"
       inkscape:connector-curvature="0"
       sodipodi:nodetypes="ccccccc" />
    <path
       sodipodi:type="arc"
       style="fill:#000000"
       id="path4261"
       sodipodi:cx="275"
       sodipodi:cy="507.36218"
       sodipodi:rx="2"
       sodipodi:ry="2"
       d="m 277,507.36218 a 2,2 0 1 1 -4,0 2,2 0 1 1 4,0 z"
       transform="translate(-65,-35)" />
    <path
       sodipodi:type="arc"
       style="fill:#000000"
       id="path4290"
       sodipodi:cx="270"
       sodipodi:cy="463.36218"
       sodipodi:rx="2"
       sodipodi:ry="2"
       d="m 272,463.36218 a 2,2 0 1 1 -4,0 2,2 0 1 1 4,0 z"
       transform="translate(-70,99)" />
    <path
       sodipodi:type="arc"
       style="fill:#000000"
       id="path3368"
       sodipodi:cx="301"
       sodipodi:cy="572.36218"
       sodipodi:rx="2"
       sodipodi:ry="2"
       d="m 303,572.36218 a 2,2 0 1 1 -4,0 2,2 0 1 1 4,0 z"
       transform="translate(-1,0)" />
    <path
       sodipodi:type="arc"
       style="fill:#000000"
       id="path3370"
       sodipodi:cx="350"
       sodipodi:cy="523.36218"
       sodipodi:rx="2"
       sodipodi:ry="2"
       d="m 352,523.36218 a 2,2 0 1 1 -4,0 2,2 0 1 1 4,0 z"
       transform="translate(0,-1)" />
    <path
       sodipodi:type="arc"
       style="fill:#000000"
       id="path3373"
       sodipodi:cx="340"
       sodipodi:cy="452.36218"
       sodipodi:rx="2"
       sodipodi:ry="2"
       d="m 342,452.36218 a 2,2 0 1 1 -4,0 2,2 0 1 1 4,0 z" />
    <path
       sodipodi:type="arc"
       style="fill:#000000"
       id="path3375"
       sodipodi:cx="270"
       sodipodi:cy="412.36218"
       sodipodi:rx="2"
       sodipodi:ry="2"
       d="m 272,412.36218 a 2,2 0 1 1 -4,0 2,2 0 1 1 4,0 z" />
    <path
       style="color:#000000;fill:none;stroke:#000000;stroke-width:1px;stroke-linecap:butt;stroke-linejoin:miter;stroke-miterlimit:4;stroke-opacity:1;stroke-dasharray:none;stroke-dashoffset:0;marker:none;visibility:visible;display:inline;overflow:visible;enable-background:accumulate"
       d="m 210,472.36218 70,25"
       id="path3838"
       inkscape:connector-curvature="0" />
    <path
       style="color:#000000;fill:none;stroke:#000000;stroke-width:1px;stroke-linecap:butt;stroke-linejoin:miter;stroke-miterlimit:4;stroke-opacity:1;stroke-dasharray:none;stroke-dashoffset:0;marker:none;visibility:visible;display:inline;overflow:visible;enable-background:accumulate"
       d="m 340,452.36218 -60,45 -5,-40 -5,-45"
       id="path3840"
       inkscape:connector-curvature="0" />
    <path
       style="color:#000000;fill:none;stroke:#000000;stroke-width:1px;stroke-linecap:butt;stroke-linejoin:miter;stroke-miterlimit:4;stroke-opacity:1;stroke-dasharray:none;stroke-dashoffset:0;marker:none;visibility:visible;display:inline;overflow:visible;enable-background:accumulate"
       d="m 210,472.36218 65,-15 65,-5"
       id="path3842"
       inkscape:connector-curvature="0"
       sodipodi:nodetypes="ccc" />
    <path
       style="color:#000000;fill:none;stroke:#000000;stroke-width:1px;stroke-linecap:butt;stroke-linejoin:miter;stroke-miterlimit:4;stroke-opacity:1;stroke-dasharray:none;stroke-dashoffset:0;marker:none;visibility:visible;display:inline;overflow:visible;enable-background:accumulate"
       d="m 200,562.36218 80,-65 70,25"
       id="path3844"
       inkscape:connector-curvature="0" />
    <path
       style="color:#000000;fill:none;stroke:#000000;stroke-width:1px;stroke-linecap:butt;stroke-linejoin:miter;stroke-miterlimit:4;stroke-opacity:1;stroke-dasharray:none;stroke-dashoffset:0;marker:none;visibility:visible;display:inline;overflow:visible;enable-background:accumulate"
       d="m 300,572.36218 -20,-75"
       id="path3846"
       inkscape:connector-curvature="0" />
    <path
       style="color:#000000;fill:none;stroke:#000000;stroke-width:1;stroke-linecap:butt;stroke-linejoin:miter;stroke-miterlimit:4;stroke-opacity:1;stroke-dasharray:none;stroke-dashoffset:0;marker:none;visibility:visible;display:inline;overflow:visible;enable-background:accumulate;marker-start:none"
       d="m 200,562.36218 100,10 50,-50"
       id="path3848"
       inkscape:connector-curvature="0" />
    <path
       style="color:#000000;fill:none;stroke:#000000;stroke-width:1px;stroke-linecap:butt;stroke-linejoin:miter;stroke-miterlimit:4;stroke-opacity:1;stroke-dasharray:none;stroke-dashoffset:0;marker:none;visibility:visible;display:inline;overflow:visible;enable-background:accumulate"
       d="m 350,522.36218 -10,-70"
       id="path3850"
       inkscape:connector-curvature="0" />
    <path
       style="color:#000000;fill:none;stroke:#000000;stroke-width:1px;stroke-linecap:butt;stroke-linejoin:miter;stroke-miterlimit:4;stroke-opacity:1;stroke-dasharray:none;stroke-dashoffset:0;marker:none;visibility:visible;display:inline;overflow:visible;enable-background:accumulate"
       d="m 210,472.36218 -10,90"
       id="path4800"
       inkscape:connector-curvature="0" />
    <path
       style="color:#000000;fill:none;stroke:#000000;stroke-width:1px;stroke-linecap:butt;stroke-linejoin:miter;stroke-miterlimit:4;stroke-opacity:1;stroke-dasharray:none;stroke-dashoffset:0;marker:none;visibility:visible;display:inline;overflow:visible;enable-background:accumulate"
       d="m 270,412.36218 -60,60"
       id="path4802"
       inkscape:connector-curvature="0" />
    <path
       style="color:#000000;fill:none;stroke:#000000;stroke-width:1px;stroke-linecap:butt;stroke-linejoin:miter;stroke-miterlimit:4;stroke-opacity:1;stroke-dasharray:none;stroke-dashoffset:0;marker:none;visibility:visible;display:inline;overflow:visible;enable-background:accumulate"
       d="m 270,412.36218 70,40"
       id="path4804"
       inkscape:connector-curvature="0" />
    <g
       transform="matrix(1.25,0,0,-1.25,186.65808,566.52086)"
       inkscape:label="latex-image-3"
       id="g4833">
      <g
         id="g4835" />
      <g
         id="g4837">
        <g
           clip-path="url(#clipPath4841)"
           id="g4839">
          <g
             clip-path="url(#clipPath4847)"
             id="g4845">
            <path
               id="path4851"
               style="fill:#000000;fill-opacity:1;fill-rule:nonzero;stroke:none"
               d="m 1.2,2.84805 c 0.48594,0.52304 0.74688,0.74804 1.07188,1.02812 0,0.00899 0.55898,0.48594 0.88398,0.81094 0.85625,0.83906 1.05508,1.27187 1.05508,1.30781 0,0.09102 -0.08086,0.09102 -0.1,0.09102 -0.06211,0 -0.08906,-0.01875 -0.13399,-0.1 C 3.70703,5.55312 3.51797,5.40898 3.3,5.40898 c -0.21602,0 -0.325,0.13399 -0.45898,0.28907 -0.17188,0.20586 -0.325,0.38789 -0.62188,0.38789 -0.67695,0 -1.09219,-0.83906 -1.09219,-1.02813 0,-0.04492 0.02813,-0.1 0.10899,-0.1 0.08125,0 0.09804,0.04531 0.11718,0.1 0.16993,0.41407 0.69376,0.42305 0.76602,0.42305 0.18867,0 0.36094,-0.06172 0.56875,-0.13594 C 3.04883,5.21094 3.14688,5.21094 3.38203,5.21094 3.05703,4.82383 2.30117,4.17383 2.12891,4.03008 L 1.31797,3.27188 C 0.703906,2.66914 0.387891,2.15508 0.387891,2.09102 c 0,-0.08907 0.091015,-0.08907 0.108203,-0.08907 0.073047,0 0.091015,0.01719 0.144922,0.11719 0.205859,0.31602 0.478124,0.55781 0.766014,0.55781 0.20781,0 0.29805,-0.08086 0.52305,-0.34179 0.15273,-0.18907 0.31601,-0.33321 0.57695,-0.33321 0.89414,0 1.41602,1.14414 1.41602,1.38789 0,0.04532 -0.03594,0.09102 -0.10821,0.09102 -0.08086,0 -0.09765,-0.05469 -0.12695,-0.1168 -0.20781,-0.58594 -0.78398,-0.7582 -1.08086,-0.7582 -0.18086,0 -0.34414,0.05508 -0.5332,0.11719 -0.30586,0.11679 -0.44102,0.15312 -0.63086,0.15312 -0.0168,0 -0.16211,0 -0.2418,-0.02734"
               inkscape:connector-curvature="0" />
            <path
               id="path4853"
               style="fill:#000000;fill-opacity:1;fill-rule:nonzero;stroke:none"
               d="m 7.432809,2.79805 c 0,0.68906 -0.080859,1.18398 -0.368749,1.62304 -0.19492,0.28789 -0.5832,0.53907 -1.08398,0.53907 -1.45313,0 -1.45313,-1.71133 -1.45313,-2.16211 0,-0.45 0,-2.12305 1.45313,-2.12305 1.452729,0 1.452729,1.67305 1.452729,2.12305 z M 5.98008,0.85 C 5.69102,0.85 5.31016,1.01914 5.18516,1.53281 5.09609,1.90312 5.09609,2.41719 5.09609,2.88008 c 0,0.45781 0,0.93398 0.09493,1.27773 0.13086,0.49531 0.53086,0.62735 0.78906,0.62735 0.33789,0 0.66406,-0.20625 0.77695,-0.56914 0.1,-0.33907 0.10586,-0.79102 0.10586,-1.33594 0,-0.46211 0,-0.92696 -0.08086,-1.32227 C 6.65703,0.987891 6.23008,0.85 5.98008,0.85"
               inkscape:connector-curvature="0" />
          </g>
        </g>
      </g>
    </g>
    <g
       transform="matrix(1.25,0,0,-1.25,196.42699,476.97396)"
       inkscape:label="latex-image-2"
       id="g4893">
      <g
         id="g4895" />
      <g
         id="g4897">
        <g
           clip-path="url(#clipPath4901)"
           id="g4899">
          <g
             clip-path="url(#clipPath4907)"
             id="g4905">
            <path
               id="path4911"
               style="fill:#000000;fill-opacity:1;fill-rule:nonzero;stroke:none"
               d="m 1.2,2.84805 c 0.48594,0.52304 0.74688,0.74804 1.07188,1.02812 0,0.00899 0.55898,0.48594 0.88398,0.81094 0.85625,0.83906 1.05508,1.27187 1.05508,1.30781 0,0.09102 -0.08086,0.09102 -0.1,0.09102 -0.06211,0 -0.08906,-0.01875 -0.13399,-0.1 C 3.70703,5.55312 3.51797,5.40898 3.3,5.40898 c -0.21602,0 -0.325,0.13399 -0.45898,0.28907 -0.17188,0.20586 -0.325,0.38789 -0.62188,0.38789 -0.67695,0 -1.09219,-0.83906 -1.09219,-1.02813 0,-0.04492 0.02813,-0.1 0.10899,-0.1 0.08125,0 0.09804,0.04531 0.11718,0.1 0.16993,0.41407 0.69376,0.42305 0.76602,0.42305 0.18867,0 0.36094,-0.06172 0.56875,-0.13594 C 3.04883,5.21094 3.14688,5.21094 3.38203,5.21094 3.05703,4.82383 2.30117,4.17383 2.12891,4.03008 L 1.31797,3.27188 C 0.703906,2.66914 0.387891,2.15508 0.387891,2.09102 c 0,-0.08907 0.091015,-0.08907 0.108203,-0.08907 0.073047,0 0.091015,0.01719 0.144922,0.11719 0.205859,0.31602 0.478124,0.55781 0.766014,0.55781 0.20781,0 0.29805,-0.08086 0.52305,-0.34179 0.15273,-0.18907 0.31601,-0.33321 0.57695,-0.33321 0.89414,0 1.41602,1.14414 1.41602,1.38789 0,0.04532 -0.03594,0.09102 -0.10821,0.09102 -0.08086,0 -0.09765,-0.05469 -0.12695,-0.1168 -0.20781,-0.58594 -0.78398,-0.7582 -1.08086,-0.7582 -0.18086,0 -0.34414,0.05508 -0.5332,0.11719 -0.30586,0.11679 -0.44102,0.15312 -0.63086,0.15312 -0.0168,0 -0.16211,0 -0.2418,-0.02734"
               inkscape:connector-curvature="0" />
            <path
               id="path4913"
               style="fill:#000000;fill-opacity:1;fill-rule:nonzero;stroke:none"
               d="m 7.364059,1.94102 -0.212109,0 C 7.13281,1.80391 7.07109,1.43281 6.98984,1.37109 6.93789,1.33398 6.45703,1.33398 6.36992,1.33398 l -1.15273,0 c 0.65781,0.58321 0.87695,0.75821 1.25273,1.05313 0.462889,0.36875 0.89492,0.75781 0.89492,1.35273 0,0.75821 -0.663671,1.22227 -1.46601,1.22227 -0.77774,0 -1.30274,-0.54492 -1.30274,-1.12227 0,-0.31992 0.26875,-0.35195 0.33086,-0.35195 0.15,0 0.33321,0.1082 0.33321,0.3332 0,0.11289 -0.04414,0.33086 -0.37032,0.33086 0.19414,0.44493 0.62032,0.58321 0.91602,0.58321 0.62695,0 0.95195,-0.48711 0.95195,-0.99532 0,-0.54492 -0.38672,-0.97773 -0.58867,-1.20273 L 4.66016,1.04492 C 4.59805,0.989062 4.59805,0.976172 4.59805,0.801172 l 2.58086,0 0.18828,1.141018"
               inkscape:connector-curvature="0" />
          </g>
        </g>
      </g>
    </g>
    <g
       transform="matrix(1.25,0,0,-1.25,262.82657,503.23698)"
       inkscape:label="latex-image-1"
       id="g4953">
      <g
         id="g4955" />
      <g
         id="g4957">
        <g
           clip-path="url(#clipPath4961)"
           id="g4959">
          <g
             clip-path="url(#clipPath4967)"
             id="g4965">
            <path
               id="path4971"
               style="fill:#000000;fill-opacity:1;fill-rule:nonzero;stroke:none"
               d="m 1.2,2.84805 c 0.48594,0.52304 0.74688,0.74804 1.07188,1.02812 0,0.00899 0.55898,0.48594 0.88398,0.81094 0.85625,0.83906 1.05508,1.27187 1.05508,1.30781 0,0.09102 -0.08086,0.09102 -0.1,0.09102 -0.06211,0 -0.08906,-0.01875 -0.13399,-0.1 C 3.70703,5.55312 3.51797,5.40898 3.3,5.40898 c -0.21602,0 -0.325,0.13399 -0.45898,0.28907 -0.17188,0.20586 -0.325,0.38789 -0.62188,0.38789 -0.67695,0 -1.09219,-0.83906 -1.09219,-1.02813 0,-0.04492 0.02813,-0.1 0.10899,-0.1 0.08125,0 0.09804,0.04531 0.11718,0.1 0.16993,0.41407 0.69376,0.42305 0.76602,0.42305 0.18867,0 0.36094,-0.06172 0.56875,-0.13594 C 3.04883,5.21094 3.14688,5.21094 3.38203,5.21094 3.05703,4.82383 2.30117,4.17383 2.12891,4.03008 L 1.31797,3.27188 C 0.703906,2.66914 0.387891,2.15508 0.387891,2.09102 c 0,-0.08907 0.091015,-0.08907 0.108203,-0.08907 0.073047,0 0.091015,0.01719 0.144922,0.11719 0.205859,0.31602 0.478124,0.55781 0.766014,0.55781 0.20781,0 0.29805,-0.08086 0.52305,-0.34179 0.15273,-0.18907 0.31601,-0.33321 0.57695,-0.33321 0.89414,0 1.41602,1.14414 1.41602,1.38789 0,0.04532 -0.03594,0.09102 -0.10821,0.09102 -0.08086,0 -0.09765,-0.05469 -0.12695,-0.1168 -0.20781,-0.58594 -0.78398,-0.7582 -1.08086,-0.7582 -0.18086,0 -0.34414,0.05508 -0.5332,0.11719 -0.30586,0.11679 -0.44102,0.15312 -0.63086,0.15312 -0.0168,0 -0.16211,0 -0.2418,-0.02734"
               inkscape:connector-curvature="0" />
            <path
               id="path4973"
               style="fill:#000000;fill-opacity:1;fill-rule:nonzero;stroke:none"
               d="m 6.29805,4.78398 c 0,0.16993 -0.01211,0.17696 -0.18711,0.17696 C 5.70898,4.56602 5.14102,4.55898 4.88281,4.55898 l 0,-0.225 c 0.15,0 0.56407,0 0.90938,0.175 l 0,-3.19492 c 0,-0.2082 0,-0.28906 -0.62735,-0.28906 l -0.23867,0 0,-0.225 c 0.11289,0.005859 0.88399,0.025 1.11602,0.025 0.19375,0 0.98398,-0.019141 1.12187,-0.025 l 0,0.225 -0.23906,0 c -0.62695,0 -0.62695,0.08086 -0.62695,0.28906 l 0,3.46992"
               inkscape:connector-curvature="0" />
          </g>
        </g>
      </g>
    </g>
    <g
       transform="matrix(1.25,0,0,-1.25,377.93733,500.01277)"
       inkscape:label="latex-image-2"
       id="g4687">
      <g
         id="g4689" />
      <g
         id="g4691">
        <g
           clip-path="url(#clipPath4695)"
           id="g4693">
          <g
             clip-path="url(#clipPath4701)"
             id="g4699">
            <path
               id="path4705"
               style="fill:#000000;fill-opacity:1;fill-rule:nonzero;stroke:none"
               d="m 4.29102,10.298 c 0,0.0141 0,0.1532 -0.18008,0.1532 -0.31992,0 -1.33594,-0.1114 -1.69688,-0.1391 C 2.30312,10.298 2.15,10.284 2.15,10.034 c 0,-0.16681 0.125,-0.16681 0.33281,-0.16681 0.66914,0 0.69531,-0.097271 0.69531,-0.23633 L 3.13711,9.35312 1.11992,1.34219 C 1.06484,1.14805 1.06484,1.11992 1.06484,1.03594 c 0,-0.318752 0.27813,-0.389065 0.40313,-0.389065 0.22187,0 0.44414,0.1671871 0.51406,0.363285 l 0.26406,1.05586 0.30586,1.25195 c 0.08321,0.30586 0.16719,0.61289 0.23594,0.93086 0.02813,0.08398 0.13906,0.54219 0.15313,0.62734 0.04179,0.125 0.47304,0.90274 0.94492,1.27969 0.30625,0.22226 0.73789,0.48633 1.33594,0.48633 0.59804,0 0.75,-0.47227 0.75,-0.97305 0,-0.75 -0.52774,-2.26719 -0.86094,-3.11602 C 4.99883,2.23398 4.93008,2.06719 4.93008,1.78906 c 0,-0.65312 0.48594,-1.141013 1.14101,-1.141013 1.30586,0 1.82188,2.030863 1.82188,2.141793 0,0.13907 -0.125,0.13907 -0.1668,0.13907 -0.13906,0 -0.13906,-0.0418 -0.20898,-0.25 C 7.30898,1.94219 6.864059,0.953906 6.1,0.953906 c -0.23711,0 -0.33398,0.139064 -0.33398,0.458984 0,0.34727 0.125,0.68125 0.25,0.98828 0.22304,0.59688 0.848039,2.25195 0.848039,3.05899 0,0.90273 -0.556249,1.48789 -1.598039,1.48789 -0.87696,0 -1.54414,-0.43086 -2.05899,-1.06993 L 4.29102,10.3"
               inkscape:connector-curvature="0" />
            <path
               id="path4707"
               style="fill:#000000;fill-opacity:1;fill-rule:nonzero;stroke:none"
               d="m 21.7551,5.34688 c 0.2078,0 0.4719,0 0.4719,0.28007 0,0.27813 -0.2641,0.27813 -0.4579,0.27813 l -8.3312,0 c -0.1938,0 -0.459,0 -0.459,-0.27813 0,-0.28007 0.266,-0.28007 0.4731,-0.28007 l 8.3031,0 z M 21.7691,2.65 c 0.1938,0 0.4579,0 0.4579,0.27812 0,0.27774 -0.2641,0.27774 -0.4719,0.27774 l -8.3031,0 c -0.2079,0 -0.4731,0 -0.4731,-0.27774 0,-0.27812 0.266,-0.27812 0.459,-0.27812 l 8.3312,0"
               inkscape:connector-curvature="0" />
            <path
               id="path4709"
               style="fill:#000000;fill-opacity:1;fill-rule:nonzero;stroke:none"
               d="M 28.123,1.61992 C 28.082,1.41211 27.998,1.09219 27.998,1.02188 c 0,-0.250005 0.195,-0.375005 0.4032,-0.375005 0.1668,0 0.4168,0.110937 0.516,0.389065 0.0129,0.02812 0.1797,0.68125 0.2637,1.03008 l 0.3062,1.25195 c 0.0828,0.30586 0.166,0.61289 0.2359,0.93086 0.0551,0.23828 0.1668,0.64101 0.1809,0.69531 0.2082,0.43086 0.9449,1.69688 2.266,1.69688 0.627,0 0.752,-0.51407 0.752,-0.97305 0,-0.34688 -0.0969,-0.73711 -0.209,-1.15508 L 32.3238,2.90117 32.0461,1.84492 C 31.991,1.56719 31.866,1.09297 31.866,1.02305 c 0,-0.250003 0.1942,-0.375003 0.4031,-0.375003 0.4309,0 0.5137,0.3480469 0.625,0.791793 0.195,0.78008 0.709,2.80899 0.834,3.35235 0.0418,0.18086 0.7797,1.85 2.2949,1.85 0.59811,0 0.75,-0.47227 0.75,-0.97305 0,-0.79219 -0.5832,-2.37812 -0.8609,-3.11602 -0.1269,-0.3332 -0.1812,-0.48593 -0.1812,-0.76406 0,-0.65312 0.48631,-1.141013 1.141,-1.141013 1.3062,0 1.8222,2.030863 1.8222,2.141793 0,0.13907 -0.125,0.13907 -0.1671,0.13907 -0.13909,0 -0.13909,-0.0418 -0.209,-0.25 -0.2078,-0.73672 -0.6532,-1.725004 -1.4168,-1.725004 -0.2371,0 -0.334,0.139064 -0.334,0.458984 0,0.34727 0.125,0.68125 0.25,0.98828 0.2637,0.72188 0.8476,2.26602 0.8476,3.05899 0,0.90273 -0.5558,1.48789 -1.6,1.48789 -1.0418,0 -1.7519,-0.61211 -2.266,-1.34805 -0.0136,0.18008 -0.0558,0.65312 -0.4449,0.98789 -0.348,0.29219 -0.7918,0.36094 -1.141,0.36094 -1.252,0 -1.9328,-0.89102 -2.1688,-1.20899 -0.0703,0.79219 -0.655,1.20899 -1.28,1.20899 -0.6411,0 -0.9051,-0.5418 -1.0301,-0.7918 -0.25,-0.48711 -0.4309,-1.3082 -0.4309,-1.35 0,-0.13906 0.1391,-0.13906 0.1668,-0.13906 0.1391,0 0.1531,0.01406 0.236,0.31992 0.2382,0.98828 0.516,1.65508 1.016,1.65508 0.2222,0 0.4312,-0.11094 0.4312,-0.63906 0,-0.2918 -0.0422,-0.44493 -0.223,-1.16875 L 28.1238,1.62305"
               inkscape:connector-curvature="0" />
            <path
               id="path4711"
               style="fill:#000000;fill-opacity:1;fill-rule:nonzero;stroke:none"
               d="m 44.2879,6.05586 c -0.25,0.51602 -0.6527,0.89102 -1.2801,0.89102 -1.6269,0 -3.3519,-2.04376 -3.3519,-4.075 0,-1.30586 0.766,-2.225005 1.85,-2.225005 0.2781,0 0.973,0.05625 1.8082,1.044145 0.1109,-0.58399 0.59801,-1.044145 1.266,-1.044145 0.4859,0 0.8058,0.320313 1.0277,0.766015 0.2383,0.5 0.4192,1.34805 0.4192,1.37695 0,0.13907 -0.127,0.13907 -0.1668,0.13907 -0.1391,0 -0.1532,-0.05586 -0.1954,-0.25 -0.23589,-0.90508 -0.48589,-1.725004 -1.0558,-1.725004 -0.377,0 -0.4168,0.360934 -0.4168,0.639064 0,0.30586 0.0269,0.41719 0.1797,1.03008 0.1531,0.58398 0.1812,0.72304 0.3062,1.25195 l 0.502,1.94688 c 0.0969,0.38906 0.0969,0.41718 0.0969,0.47304 0,0.23594 -0.1668,0.374999 -0.4032,0.374999 -0.334,0 -0.5418,-0.305859 -0.584,-0.612109 L 44.2879,6.05586 z M 43.3828,2.45508 C 43.3141,2.20508 43.3141,2.17695 43.1051,1.94102 42.4941,1.175 41.9238,0.953906 41.5352,0.953906 c -0.6954,0 -0.8911,0.764064 -0.8911,1.308204 0,0.69492 0.445,2.40508 0.7661,3.04492 0.4296,0.81992 1.0558,1.33399 1.6128,1.33399 0.9051,0 1.09811,-1.14102 1.09811,-1.22305 0,-0.08281 -0.02811,-0.1668 -0.04221,-0.23594 L 43.384,2.45508"
               inkscape:connector-curvature="0" />
            <path
               id="path4713"
               style="fill:#000000;fill-opacity:1;fill-rule:nonzero;stroke:none"
               d="m 51.14491,5 c 0.08319,0.36094 0.40309,1.64102 1.377,1.64102 0.06909,0 0.40309,0 0.69529,-0.18008 C 52.8281,6.39102 52.55,6.04414 52.55,5.70898 c 0,-0.22187 0.1531,-0.4871 0.5281,-0.4871 0.3059,0 0.752,0.25195 0.752,0.8082 0,0.72187 -0.8223,0.9168 -1.2942,0.9168 -0.8058,0 -1.2937,-0.73672 -1.4609,-1.05586 -0.3469,0.916789 -1.098,1.05586 -1.502,1.05586 -1.4468,0 -2.239,-1.79376 -2.239,-2.1418 0,-0.13906 0.139,-0.13906 0.1672,-0.13906 0.1109,0 0.1527,0.02812 0.1808,0.15312 0.4719,1.475 1.391,1.82188 1.8629,1.82188 0.2641,0 0.752,-0.125 0.752,-0.93086 0,-0.43125 -0.236,-1.36211 -0.752,-3.30899 -0.2219,-0.86211 -0.709,-1.447264 -1.3199,-1.447264 -0.084,0 -0.4031,0 -0.6949,0.181254 0.3469,0.06875 0.6527,0.36093 0.6527,0.75 0,0.37695 -0.3058,0.48789 -0.5137,0.48789 -0.4171,0 -0.766,-0.36211 -0.766,-0.80586 0,-0.641018 0.6949,-0.919143 1.3078,-0.919143 0.91721,0 1.4192,0.973043 1.459,1.057813 0.1672,-0.51602 0.6692,-1.057813 1.5031,-1.057813 1.4309,0 2.225,1.794143 2.225,2.141793 0,0.13907 -0.125,0.13907 -0.1671,0.13907 -0.125,0 -0.1528,-0.05586 -0.1809,-0.15274 -0.459,-1.48711 -1.40509,-1.822264 -1.85,-1.822264 -0.5422,0 -0.7641,0.444924 -0.7641,0.917184 0,0.30586 0.0832,0.61289 0.236,1.225 l 0.47301,1.90508"
               inkscape:connector-curvature="0" />
            <path
               id="path4715"
               style="fill:#000000;fill-opacity:1;fill-rule:nonzero;stroke:none"
               d="m 62.084,1.56602 0,-0.919145 2.0449,0.153125 0,0.43086 c -0.973,0 -1.0859,0.09726 -1.0859,0.77812 l 0,8.44222 -2.002,-0.1532 0,-0.43081 c 0.97311,0 1.084,-0.097271 1.084,-0.77813 l 0,-3.00508 c -0.4031,0.50196 -1.002,0.8629 -1.75309,0.8629 -1.64101,0 -3.1,-1.36172 -3.1,-3.15586 0,-1.76719 1.36329,-3.144145 2.948,-3.144145 0.88909,0 1.51599,0.473045 1.86289,0.919145 l 0.0012,0 z m 0,3.72617 0,-2.85235 c 0,-0.25 0,-0.27773 -0.1531,-0.51367 -0.41679,-0.66719 -1.04179,-0.973045 -1.6411,-0.973045 -0.625,0 -1.1269,0.360935 -1.4609,0.891015 -0.3609,0.56875 -0.4027,1.36289 -0.4027,1.93281 0,0.51407 0.0277,1.34805 0.4308,1.975 0.2918,0.43086 0.82,0.88907 1.5719,0.88907 0.48831,0 1.06991,-0.20821 1.502,-0.83399 C 62.084,5.57109 62.084,5.54297 62.084,5.29297"
               inkscape:connector-curvature="0" />
            <path
               id="path4717"
               style="fill:#000000;fill-opacity:1;fill-rule:nonzero;stroke:none"
               d="m 66.9609,6.94688 -1.94679,-0.15274 0,-0.43125 c 0.905,0 1.03,-0.08281 1.03,-0.76406 l 0,-3.7418 c 0,-0.625 -0.15311,-0.625 -1.0839,-0.625 l 0,-0.430858 c 0.4449,0.013672 1.1949,0.0417969 1.52959,0.0417969 0.4864,0 0.97311,-0.0281249 1.4454,-0.0417969 l 0,0.430858 c -0.9172,0 -0.9731,0.06914 -0.9731,0.61289 l 0,5.10313 -0.0012,-0.00117 z m 0.0563,2.42031 c 0,0.44492 -0.34809,0.73791 -0.73709,0.73791 -0.4313,0 -0.736,-0.37698 -0.736,-0.73713 0,-0.376951 0.3047,-0.73711 0.736,-0.73711 0.389,0 0.73789,0.29219 0.73789,0.73828"
               inkscape:connector-curvature="0" />
            <path
               id="path4719"
               style="fill:#000000;fill-opacity:1;fill-rule:nonzero;stroke:none"
               d="M 73.03091,1.85586 C 73.0871,1.3 73.4621,0.717188 74.1148,0.717188 c 0.29221,0 1.14111,0.19375 1.14111,1.319922 l 0,0.78008 -0.3481,0 0,-0.78008 c 0,-0.80625 -0.3469,-0.88906 -0.5,-0.88906 -0.459,0 -0.51371,0.625 -0.51371,0.69492 l 0,2.78086 c 0,0.5832 0,1.12734 -0.5019,1.64101 -0.5422,0.54219 -1.23709,0.76407 -1.90509,0.76407 -1.141,0 -2.1,-0.65274 -2.1,-1.56993 0,-0.41679 0.27769,-0.65507 0.6391,-0.65507 0.391,0 0.641,0.27812 0.641,0.64101 0,0.16719 -0.0703,0.625 -0.70941,0.63906 0.375,0.4879 1.05631,0.64102 1.50241,0.64102 0.68079,0 1.47499,-0.54219 1.47499,-1.78086 l 0,-0.51406 c -0.709,-0.04219 -1.6832,-0.0832 -2.55899,-0.5 -1.04421,-0.47305 -1.391,-1.19727 -1.391,-1.8082 0,-1.126958 1.34759,-1.475005 2.225,-1.475005 0.91679,0 1.55779,0.556245 1.8218,1.208985 l -0.0011,0 z m -0.09691,2.28203 0,-1.39101 c 0,-1.31993 -1.002,-1.793755 -1.6281,-1.793755 -0.6809,0 -1.25199,0.485935 -1.25199,1.180855 0,0.76602 0.58399,1.91993 2.88009,2.00313"
               inkscape:connector-curvature="0" />
            <path
               id="path4721"
               style="fill:#000000;fill-opacity:1;fill-rule:nonzero;stroke:none"
               d="m 76.93011,5.58398 0,-3.72812 c 0,-0.625 -0.15311,-0.625 -1.084,-0.625 l 0,-0.43086 C 76.332,0.8140621 77.041,0.842188 77.418,0.842188 c 0.36091,0 1.084,-0.0281259 1.55581,-0.042188 l 0,0.43086 c -0.93081,0 -1.08401,0 -1.08401,0.625 l 0,2.55898 c 0,1.44727 0.98831,2.225 1.8782,2.225 0.87691,0 1.0281,-0.75 1.0281,-1.54375 l 0,-3.24101 c 0,-0.625 -0.152,-0.625 -1.084,-0.625 l 0,-0.431252 c 0.4879,0.014063 1.1969,0.042188 1.5719,0.042188 0.36091,0 1.084,-0.028125 1.55821,-0.042188 l 0,0.431252 c -0.93321,0 -1.08441,0 -1.08441,0.625 l 0,2.55898 c 0,1.44688 0.98831,2.225 1.87741,2.225 0.8769,0 1.02959,-0.75 1.02959,-1.54414 l 0,-3.24101 c 0,-0.625 -0.15269,-0.625 -1.0839,-0.625 l 0,-0.430863 c 0.48631,0.014062 1.19531,0.0417969 1.57031,0.0417969 0.3629,0 1.0859,-0.0277349 1.55779,-0.0417969 l 0,0.430863 c -0.72309,0 -1.06989,0 -1.084,0.41718 l 0,2.65586 c 0,1.19493 0,1.62696 -0.43089,2.12813 -0.19531,0.23594 -0.65311,0.51406 -1.4613,0.51406 -1.16681,0 -1.7797,-0.83398 -2.0156,-1.36211 -0.19531,1.20899 -1.22311,1.36289 -1.85,1.36289 -1.01601,0 -1.66921,-0.59804 -2.05821,-1.45898 l 0,1.45898 -1.961,-0.15273 0,-0.43125 c 0.97311,0 1.084,-0.09688 1.084,-0.77813"
               inkscape:connector-curvature="0" />
            <path
               id="path4723"
               style="fill:#000000;fill-opacity:1;fill-rule:nonzero;stroke:none"
               d="M 96.37811,6.41914 C 96.366,6.46094 96.309,6.57188 96.309,6.61289 c 0,0.01406 0.25,0.20899 0.4031,0.319919 l 2.43401,1.878131 c 1.30589,0.958979 1.84789,1.01406 2.26589,1.05625 0.113,0.013669 0.252,0.027729 0.252,0.27771 0,0.0563 -0.042,0.1531 -0.153,0.1531 -0.306,0 -0.655,-0.0421 -0.987,-0.0421 -0.502,0 -1.0439,0.0421 -1.5439,0.0421 -0.0973,0 -0.2641,0 -0.2641,-0.2781 0,-0.09685 0.06921,-0.139041 0.1668,-0.15271 0.3051,-0.02813 0.4301,-0.097271 0.4301,-0.29219 0,-0.25 -0.41679,-0.56992 -0.5,-0.63906 l -5.42309,-4.17188 1.1133,4.46406 c 0.125,0.5 0.1528,0.63907 1.1668,0.63907 0.34809,0 0.47309,0 0.47309,0.27771 0,0.125 -0.11099,0.1531 -0.195,0.1531 -0.389,0 -1.391,-0.0421 -1.78,-0.0421 -0.40319,0 -1.391,0.0421 -1.7942,0.0421 -0.0968,0 -0.27769,0 -0.27769,-0.264 0,-0.16681 0.125,-0.16681 0.40269,-0.16681 0.18131,0 0.43131,-0.01407 0.59811,-0.02813 0.2222,-0.02695 0.3062,-0.069141 0.3062,-0.22187 0,-0.05625 -0.014,-0.097271 -0.0562,-0.26407 l -1.8641,-7.46914 c -0.1387,-0.54179 -0.1656,-0.65312 -1.2656,-0.65312 -0.23631,0 -0.3891,0 -0.3891,-0.263672 C 89.82811,0.8 89.9949,0.8 90.0371,0.8 c 0.3891,0 1.37701,0.042188 1.76601,0.042188 0.29179,0 0.5981,-0.014063 0.891,-0.014063 C 93,0.828125 93.30511,0.8 93.59691,0.8 c 0.098,0 0.27809,0 0.27809,0.27812 0,0.15274 -0.125,0.15274 -0.38909,0.15274 -0.514,0 -0.9031,0 -0.9031,0.25 0,0.09726 0.08319,0.40312 0.125,0.61328 0.19419,0.72305 0.375,1.45898 0.5563,2.18281 l 2.0718,1.61407 1.6129,-3.74219 C 97.116,1.77383 97.116,1.74609 97.116,1.66289 c 0,-0.4168 -0.598,-0.43086 -0.723,-0.43086 -0.15319,0 -0.3059,0 -0.3059,-0.278124 0,-0.152734 0.16681,-0.152734 0.19491,-0.152734 0.5559,0 1.14099,0.0417969 1.69689,0.0417969 0.30631,0 1.05631,-0.0417969 1.36331,-0.0417969 0.06989,0 0.25,0 0.25,0.277738 0,0.15312 -0.1524,0.15312 -0.2781,0.15312 -0.56921,0.01406 -0.75,0.13906 -0.95901,0.625 l -1.975,4.562889"
               inkscape:connector-curvature="0" />
          </g>
        </g>
      </g>
    </g>
  </g>
</svg>
