<?xml version="1.0" encoding="UTF-8" standalone="no"?>
<!-- Created with Inkscape (http://www.inkscape.org/) -->

<svg
   xmlns:dc="http://purl.org/dc/elements/1.1/"
   xmlns:cc="http://creativecommons.org/ns#"
   xmlns:rdf="http://www.w3.org/1999/02/22-rdf-syntax-ns#"
   xmlns:svg="http://www.w3.org/2000/svg"
   xmlns="http://www.w3.org/2000/svg"
   xmlns:sodipodi="http://sodipodi.sourceforge.net/DTD/sodipodi-0.dtd"
   xmlns:inkscape="http://www.inkscape.org/namespaces/inkscape"
   width="210mm"
   height="297mm"
   id="svg2"
   version="1.1"
   inkscape:version="0.48.5 r10040"
   sodipodi:docname="Zeichnung-2.eps">
  <defs
     id="defs4">
    <marker
       inkscape:stockid="Arrow2Lstart"
       orient="auto"
       refY="0.0"
       refX="0.0"
       id="Arrow2Lstart"
       style="overflow:visible">
      <path
         id="path3896"
         style="fill-rule:evenodd;stroke-width:0.62500000;stroke-linejoin:round"
         d="M 8.7185878,4.0337352 L -2.2072895,0.016013256 L 8.7185884,-4.0017078 C 6.9730900,-1.6296469 6.9831476,1.6157441 8.7185878,4.0337352 z "
         transform="scale(1.1) translate(1,0)" />
    </marker>
    <marker
       inkscape:stockid="Arrow1Lend"
       orient="auto"
       refY="0.0"
       refX="0.0"
       id="Arrow1Lend"
       style="overflow:visible;">
      <path
         id="path3881"
         d="M 0.0,0.0 L 5.0,-5.0 L -12.5,0.0 L 5.0,5.0 L 0.0,0.0 z "
         style="fill-rule:evenodd;stroke:#000000;stroke-width:1.0pt;"
         transform="scale(0.8) rotate(180) translate(12.5,0)" />
    </marker>
    <inkscape:perspective
       sodipodi:type="inkscape:persp3d"
       inkscape:vp_x="0 : 526.18109 : 1"
       inkscape:vp_y="0 : 1000 : 0"
       inkscape:vp_z="744.09448 : 526.18109 : 1"
       inkscape:persp3d-origin="372.04724 : 350.78739 : 1"
       id="perspective4243" />
    <clipPath
       id="clipPath3117"
       clipPathUnits="userSpaceOnUse">
      <path
         id="path3119"
         d="M 0,0 28,0 28,22 0,22 0,0 z" />
    </clipPath>
    <clipPath
       id="clipPath3180"
       clipPathUnits="userSpaceOnUse">
      <path
         id="path3182"
         d="M 0,0 28,0 28,22 0,22 0,0 z" />
    </clipPath>
    <clipPath
       id="clipPath3237"
       clipPathUnits="userSpaceOnUse">
      <path
         id="path3239"
         d="M 0,0 8,0 8,7 0,7 0,0 z" />
    </clipPath>
    <clipPath
       id="clipPath3231"
       clipPathUnits="userSpaceOnUse">
      <path
         id="path3233"
         d="m 0,0.0371094 8,0 0,6.3000006 -8,0 0,-6.3000006 z" />
    </clipPath>
    <clipPath
       id="clipPath3316"
       clipPathUnits="userSpaceOnUse">
      <path
         id="path3318"
         d="M 0,0 8,0 8,7 0,7 0,0 z" />
    </clipPath>
    <clipPath
       id="clipPath3310"
       clipPathUnits="userSpaceOnUse">
      <path
         id="path3312"
         d="m 0,0.0371094 8,0 0,6.3000006 -8,0 0,-6.3000006 z" />
    </clipPath>
    <clipPath
       id="clipPath3376"
       clipPathUnits="userSpaceOnUse">
      <path
         id="path3378"
         d="M 0,0 8,0 8,7 0,7 0,0 z" />
    </clipPath>
    <clipPath
       id="clipPath3370"
       clipPathUnits="userSpaceOnUse">
      <path
         id="path3372"
         d="m 0,0.0371094 8,0 L 8,7 0,7 0,0.0371094 z" />
    </clipPath>
    <clipPath
       id="clipPath3436"
       clipPathUnits="userSpaceOnUse">
      <path
         id="path3438"
         d="M 0,0 8,0 8,7 0,7 0,0 z" />
    </clipPath>
    <clipPath
       id="clipPath3430"
       clipPathUnits="userSpaceOnUse">
      <path
         id="path3432"
         d="m 0,0.0371094 8,0 L 8,7 0,7 0,0.0371094 z" />
    </clipPath>
    <clipPath
       id="clipPath3412"
       clipPathUnits="userSpaceOnUse">
      <path
         id="path3414"
         d="M 0,0 112,0 112,34 0,34 0,0 z" />
    </clipPath>
    <clipPath
       id="clipPath3475"
       clipPathUnits="userSpaceOnUse">
      <path
         id="path3477"
         d="M 0,0 32,0 32,11 0,11 0,0 z" />
    </clipPath>
    <clipPath
       id="clipPath3469"
       clipPathUnits="userSpaceOnUse">
      <path
         id="path3471"
         d="m 0,0 31.9441,0 0,11 L 0,11 0,0 z" />
    </clipPath>
    <clipPath
       id="clipPath3541"
       clipPathUnits="userSpaceOnUse">
      <path
         id="path3543"
         d="M 0,0 5,0 5,7 0,7 0,0 z" />
    </clipPath>
    <clipPath
       id="clipPath3535"
       clipPathUnits="userSpaceOnUse">
      <path
         id="path3537"
         d="m 0,0.0371094 5,0 L 5,7 0,7 0,0.0371094 z" />
    </clipPath>
    <clipPath
       id="clipPath3598"
       clipPathUnits="userSpaceOnUse">
      <path
         id="path3600"
         d="M 0,0 14,0 14,10 0,10 0,0 z" />
    </clipPath>
    <clipPath
       id="clipPath3592"
       clipPathUnits="userSpaceOnUse">
      <path
         id="path3594"
         d="M 0.944141,0 14,0 l 0,10 -13.055859,0 0,-10 z" />
    </clipPath>
    <clipPath
       id="clipPath7389"
       clipPathUnits="userSpaceOnUse">
      <path
         id="path7391"
         d="M 0,0 45,0 45,31 0,31 0,0 z" />
    </clipPath>
    <clipPath
       id="clipPath7446"
       clipPathUnits="userSpaceOnUse">
      <path
         id="path7448"
         d="M 0,0 12,0 12,9 0,9 0,0 z" />
    </clipPath>
    <clipPath
       id="clipPath7440"
       clipPathUnits="userSpaceOnUse">
      <path
         id="path7442"
         d="m 0,0.0371094 12,0 L 12,9 0,9 0,0.0371094 z" />
    </clipPath>
    <clipPath
       id="clipPath7506"
       clipPathUnits="userSpaceOnUse">
      <path
         id="path7508"
         d="M 0,0 80,0 80,9 0,9 0,0 z" />
    </clipPath>
    <clipPath
       id="clipPath7500"
       clipPathUnits="userSpaceOnUse">
      <path
         id="path7502"
         d="m 0,0.0371094 80,0 L 80,9 0,9 0,0.0371094 z" />
    </clipPath>
  </defs>
  <sodipodi:namedview
     id="base"
     pagecolor="#ffffff"
     bordercolor="#666666"
     borderopacity="1.0"
     inkscape:pageopacity="0.0"
     inkscape:pageshadow="2"
     inkscape:zoom="1.979899"
     inkscape:cx="269.84144"
     inkscape:cy="542.46494"
     inkscape:document-units="px"
     inkscape:current-layer="layer1"
     showgrid="true"
     inkscape:snap-to-guides="false"
     inkscape:window-width="1233"
     inkscape:window-height="681"
     inkscape:window-x="26"
     inkscape:window-y="19"
     inkscape:window-maximized="0"
     inkscape:snap-smooth-nodes="true"
     inkscape:snap-midpoints="true"
     inkscape:object-paths="true"
     inkscape:snap-page="true"
     inkscape:snap-grids="true"
     inkscape:object-nodes="true">
    <inkscape:grid
       type="xygrid"
       id="grid2985" />
  </sodipodi:namedview>
  <metadata
     id="metadata7">
    <rdf:RDF>
      <cc:Work
         rdf:about="">
        <dc:format>image/svg+xml</dc:format>
        <dc:type
           rdf:resource="http://purl.org/dc/dcmitype/StillImage" />
        <dc:title></dc:title>
      </cc:Work>
    </rdf:RDF>
  </metadata>
  <g
     inkscape:label="Ebene 1"
     inkscape:groupmode="layer"
     id="layer1"
     style="display:inline">
    <path
       sodipodi:type="star"
       style="opacity:0.02999998;fill:none"
       id="path2987"
       sodipodi:sides="5"
       sodipodi:cx="280"
       sodipodi:cy="472.36218"
       sodipodi:r1="14.142136"
       sodipodi:r2="8.119647"
       sodipodi:arg1="-2.3561945"
       sodipodi:arg2="-1.727876"
       inkscape:flatsided="false"
       inkscape:rounded="0"
       inkscape:randomized="0"
       d="m 270,462.36218 8.72981,1.98032 7.69059,-4.58105 0.81426,8.91449 6.73336,5.89856 -8.22656,3.52914 -3.52914,8.22657 -5.89856,-6.73337 -8.9145,-0.81426 4.58106,-7.69059 z"
       inkscape:transform-center-x="-0.68364368"
       inkscape:transform-center-y="0.68364368" />
    <path
       style="fill:none;stroke:#000000;stroke-width:1px;stroke-linecap:butt;stroke-linejoin:miter;stroke-opacity:1"
       d="m 200,562.36218 10,-90 60,-60 70,40 10,70 -50,50 z"
       id="path3009"
       inkscape:connector-curvature="0" />
    <path
       sodipodi:type="arc"
       style="fill:#000000"
       id="path4261"
       sodipodi:cx="275"
       sodipodi:cy="507.36218"
       sodipodi:rx="2"
       sodipodi:ry="2"
       d="m 277,507.36218 a 2,2 0 1 1 -4,0 2,2 0 1 1 4,0 z"
       transform="translate(-65,-35)" />
    <path
       sodipodi:type="arc"
       style="fill:#000000"
       id="path4290"
       sodipodi:cx="270"
       sodipodi:cy="463.36218"
       sodipodi:rx="2"
       sodipodi:ry="2"
       d="m 272,463.36218 a 2,2 0 1 1 -4,0 2,2 0 1 1 4,0 z"
       transform="translate(-70,99)" />
    <path
       style="color:#000000;fill:none;stroke:#000000;stroke-width:1px;stroke-linecap:butt;stroke-linejoin:miter;stroke-miterlimit:4;stroke-opacity:1;stroke-dasharray:none;stroke-dashoffset:0;marker:none;visibility:visible;display:inline;overflow:visible;enable-background:accumulate"
       d="m 270,412.36218 -60,60"
       id="path4292"
       inkscape:connector-curvature="0" />
    <path
       style="color:#000000;fill:none;stroke:#000000;stroke-width:1px;stroke-linecap:butt;stroke-linejoin:miter;stroke-miterlimit:4;stroke-opacity:1;stroke-dasharray:none;stroke-dashoffset:0;marker:none;visibility:visible;display:inline;overflow:visible;enable-background:accumulate"
       d="m 200,562.36218 10,-90 z"
       id="path4294"
       inkscape:connector-curvature="0" />
    <path
       style="color:#000000;fill:none;stroke:#000000;stroke-width:1px;stroke-linecap:butt;stroke-linejoin:miter;stroke-miterlimit:4;stroke-opacity:1;stroke-dasharray:none;stroke-dashoffset:0;marker:none;visibility:visible;display:inline;overflow:visible;enable-background:accumulate"
       d="m 270,412.36218 70,40"
       id="path4296"
       inkscape:connector-curvature="0" />
    <path
       style="color:#000000;fill:none;stroke:#000000;stroke-width:1px;stroke-linecap:butt;stroke-linejoin:miter;stroke-miterlimit:4;stroke-opacity:1;stroke-dasharray:none;stroke-dashoffset:0;marker:none;marker-start:url(#Arrow2Lstart);visibility:visible;display:inline;overflow:visible;enable-background:accumulate"
       d="m 291,491.36218 -21,21"
       id="path3344"
       inkscape:connector-curvature="0"
       sodipodi:nodetypes="cc" />
    <path
       sodipodi:type="arc"
       style="fill:#000000"
       id="path3368"
       sodipodi:cx="301"
       sodipodi:cy="572.36218"
       sodipodi:rx="2"
       sodipodi:ry="2"
       d="m 303,572.36218 a 2,2 0 1 1 -4,0 2,2 0 1 1 4,0 z"
       transform="translate(-1,0)" />
    <path
       sodipodi:type="arc"
       style="fill:#000000"
       id="path3370"
       sodipodi:cx="350"
       sodipodi:cy="523.36218"
       sodipodi:rx="2"
       sodipodi:ry="2"
       d="m 352,523.36218 a 2,2 0 1 1 -4,0 2,2 0 1 1 4,0 z"
       transform="translate(0,-1)" />
    <path
       sodipodi:type="arc"
       style="fill:#000000"
       id="path3373"
       sodipodi:cx="340"
       sodipodi:cy="452.36218"
       sodipodi:rx="2"
       sodipodi:ry="2"
       d="m 342,452.36218 a 2,2 0 1 1 -4,0 2,2 0 1 1 4,0 z" />
    <path
       sodipodi:type="arc"
       style="fill:#000000"
       id="path3375"
       sodipodi:cx="270"
       sodipodi:cy="412.36218"
       sodipodi:rx="2"
       sodipodi:ry="2"
       d="m 272,412.36218 a 2,2 0 1 1 -4,0 2,2 0 1 1 4,0 z" />
    <g
       transform="matrix(1.25,0,0,-1.25,263.69137,460.19323)"
       inkscape:label="latex-image-4"
       id="g3461">
      <g
         id="g3463" />
      <g
         id="g3465">
        <g
           clip-path="url(#clipPath3469)"
           id="g3467">
          <g
             clip-path="url(#clipPath3475)"
             id="g3473">
            <path
               id="path3479"
               style="fill:#000000;fill-opacity:1;fill-rule:nonzero;stroke:none"
               d="m 7.225,2.90898 -0.24805,0 C 6.92695,2.65117 6.88789,2.42188 6.79883,2.18398 6.74883,2.025 6.71914,1.94492 6.14297,1.94492 l -0.79492,0 c 0.13007,0.55625 0.43789,1.0332 0.88398,1.68906 0.4668,0.70508 0.875,1.39102 0.875,2.175 0,1.38086 -1.34101,2.49414 -3.01992,2.49414 -1.7082,0 -3.03008,-1.133201 -3.03008,-2.49414 0,-0.78398 0.40781,-1.46992 0.87305,-2.175 C 2.36797,2.97812 2.68594,2.50117 2.81406,1.94492 l -0.79414,0 C 1.44297,1.94492 1.41406,2.025 1.36406,2.17305 1.28398,2.40312 1.23398,2.66094 1.18594,2.90898 l -0.248049,0 L 1.26602,1.3 l 1.58906,0 c 0.21875,0 0.24804,0 0.24804,0.20898 0,0.69493 -0.3082,1.56914 -0.5371,2.20508 C 2.35781,4.29102 2.08008,5.075 2.08008,5.81992 c 0,1.58906 1.0918,2.26406 1.99687,2.26406 0.95313,0 2.00586,-0.71601 2.00586,-2.26406 0,-0.74492 -0.26875,-1.5 -0.55586,-2.31601 C 5.37891,3.08711 5.06016,2.19297 5.06016,1.50898 5.06016,1.3 5.08984,1.3 5.31797,1.3 l 1.58008,0 0.32812,1.60898"
               inkscape:connector-curvature="0" />
            <path
               id="path3481"
               style="fill:#000000;fill-opacity:1;fill-rule:nonzero;stroke:none"
               d="m 17.0469,6.26719 c 0.1691,0 0.3472,0 0.3472,0.19765 0,0.19805 -0.1781,0.19805 -0.3472,0.19805 l -2.6731,0 c -1.6976,0 -3.0476,-1.29101 -3.0476,-2.88086 0,-1.58906 1.35,-2.8800771 3.0476,-2.8800771 l 2.6731,0 c 0.1691,0 0.3472,0 0.3472,0.1980471 0,0.19805 -0.1781,0.19805 -0.3472,0.19805 l -2.6528,0 c -1.55,0 -2.6722,1.15195 -2.6722,2.48281 0,1.33125 1.1222,2.48398 2.6722,2.48398 l 2.6528,0"
               inkscape:connector-curvature="0" />
            <path
               id="path3483"
               style="fill:#000000;fill-opacity:1;fill-rule:nonzero;stroke:none"
               d="m 23.6629,4.41914 0.3582,0 1.4891,-2.30508 C 25.6102,1.95586 25.848,1.56914 25.957,1.41914 26.027,1.3 26.057,1.3 26.2852,1.3 l 1.3718,0 c 0.1782,0 0.327,0 0.327,0.17812 0,0.07969 -0.059,0.15 -0.1481,0.16993 -0.3668,0.07812 -0.855,0.73398 -1.0918,1.05195 -0.0703,0.1 -0.5671,0.75586 -1.2332,1.82812 0.884,0.15899 1.7391,0.5379 1.7391,1.71876 0,1.38124 -1.4609,1.8582 -2.6328,1.8582 l -3.1192,0 c -0.18,0 -0.3371,0 -0.3371,-0.17813 0,-0.16992 0.1891,-0.16992 0.2672,-0.16992 0.5668,0 0.6168,-0.06914 0.6168,-0.56601 l 0,-4.97696 c 0,-0.49687 -0.05,-0.56601 -0.6168,-0.56601 -0.0781,0 -0.2672,0 -0.2672,-0.16993 C 21.1609,1.3 21.3191,1.3 21.4988,1.3 l 2.7223,0 c 0.1777,0 0.3277,0 0.3277,0.17812 0,0.16993 -0.1687,0.16993 -0.2777,0.16993 -0.5672,0 -0.6063,0.07812 -0.6063,0.56601 l 0,2.20508 -0.0019,0 z m 1.9172,0.48672 c 0.2777,0.36719 0.3078,0.89414 0.3078,1.33125 0,0.47695 -0.059,1.00273 -0.3777,1.40898 0.4078,-0.08906 1.391,-0.39726 1.391,-1.4 0,-0.64492 -0.2973,-1.15195 -1.3203,-1.34101 l -8e-4,7.8e-4 z m -1.9172,2.31406 c 0,0.20899 0,0.53594 0.616,0.53594 0.8441,0 1.2609,-0.34688 1.2609,-1.51875 0,-1.28125 -0.3078,-1.46992 -1.8769,-1.46992 l 0,2.45273 z m -1.352,-5.57187 c 0.0801,0.17812 0.0801,0.45586 0.0801,0.54492 l 0,5.01719 c 0,0.097649 0,0.36679 -0.0801,0.54492 l 1.1332,0 c -0.13,-0.158201 -0.13,-0.35625 -0.13,-0.50625 l 0,-5.05586 c 0,-0.09805 0,-0.3668 0.08,-0.54492 l -1.0832,0 z m 2.1161,2.77109 c 0.0699,0.01094 0.1089,0.01992 0.189,0.01992 0.15,0 0.3668,0.01992 0.5168,0.03906 0.1481,-0.2371 1.2223,-2.00624 2.0453,-2.83007 l -0.9621,0 -1.789,2.76992"
               inkscape:connector-curvature="0" />
            <path
               id="path3485"
               style="fill:#000000;fill-opacity:1;fill-rule:nonzero;stroke:none"
               d="m 31.75,6.68008 -0.2391,0 C 31.491,6.525 31.4199,6.11016 31.3281,6.03906 31.2719,5.99688 30.7309,5.99688 30.6328,5.99688 l -1.2937,0 c 0.7379,0.65507 0.9839,0.85195 1.4058,1.18124 0.5199,0.41602 1.0051,0.85196 1.0051,1.518759 0,0.851951 -0.7449,1.370321 -1.6449,1.370321 -0.8723,0 -1.4621,-0.61134 -1.4621,-1.25822 0,-0.35781 0.3031,-0.39414 0.373,-0.39414 0.1692,0 0.3719,0.12032 0.3719,0.37305 0,0.12695 -0.0481,0.37227 -0.4141,0.37227 0.2172,0.5 0.6953,0.65468 1.0274,0.65468 0.7027,0 1.0687,-0.54765 1.0687,-1.11875 0,-0.61093 -0.4359,-1.09726 -0.6609,-1.35 L 28.7141,5.67305 C 28.6441,5.61094 28.6441,5.59609 28.6441,5.4 l 2.8969,0 0.211,1.28008"
               inkscape:connector-curvature="0" />
          </g>
        </g>
      </g>
    </g>
    <g
       transform="matrix(1.25,0,0,-1.25,269.25391,502.21082)"
       inkscape:label="latex-image-5"
       id="g3527">
      <g
         id="g3529" />
      <g
         id="g3531">
        <g
           clip-path="url(#clipPath3535)"
           id="g3533">
          <g
             clip-path="url(#clipPath3541)"
             id="g3539">
            <path
               id="path3545"
               style="fill:#000000;fill-opacity:1;fill-rule:nonzero;stroke:none"
               d="m 4.69102,6.68086 c 0,0.041019 -0.03008,0.1 -0.1,0.1 -0.10899,0 -0.50586,-0.39805 -0.675,-0.68594 -0.21914,0.53594 -0.60586,0.69492 -0.925,0.69492 -1.17188,0 -2.394145,-1.46992 -2.394145,-2.91093 0,-0.97305 0.585935,-1.58907 1.313285,-1.58907 0.42695,0 0.81367,0.23907 1.17187,0.59727 C 2.99102,2.53906 2.66484,1.19805 2.63516,1.10898 2.55508,0.830859 2.47617,0.789844 1.91914,0.780859 c -0.13008,0 -0.22812,0 -0.22812,-0.198047 0,-0.010937 0,-0.108984 0.12812,-0.108984 0.31875,0 0.66602,0.030078 0.99375,0.030078 0.33828,0 0.69492,-0.030078 1.02305,-0.030078 0.05,0 0.17812,0 0.17812,0.198047 0,0.108984 -0.09804,0.108984 -0.2582,0.108984 -0.47695,0 -0.47695,0.069141 -0.47695,0.1582031 0,0.0699179 0.01992,0.1300779 0.03906,0.2187479 l 1.37187,5.52305 0.00118,0 z M 1.93906,2.50898 c -0.59687,0 -0.63594,0.76407 -0.63594,0.93399 0,0.47695 0.2879,1.55898 0.45586,1.97695 0.30821,0.73399 0.825,1.15196 1.23086,1.15196 0.64727,0 0.78633,-0.80469 0.78633,-0.87305 0,-0.05899 -0.54726,-2.23594 -0.57734,-2.275 C 3.05117,3.14609 2.49414,2.51016 1.93789,2.51016"
               inkscape:connector-curvature="0" />
          </g>
        </g>
      </g>
    </g>
    <g
       transform="matrix(1.25,0,0,-1.25,358.81982,488.61218)"
       inkscape:label="latex-image-6"
       id="g3584">
      <g
         id="g3586" />
      <g
         id="g3588">
        <g
           clip-path="url(#clipPath3592)"
           id="g3590">
          <g
             clip-path="url(#clipPath3598)"
             id="g3596">
            <path
               id="path3602"
               style="fill:#000000;fill-opacity:1;fill-rule:nonzero;stroke:none"
               d="m 6.20312,9.055079 -5.175,0 0,-0.308199 0.2379,0 c 0.76601,0 0.78593,-0.10899 0.78593,-0.4668 l 0,-5.20508 c 0,-0.35781 -0.01992,-0.46719 -0.78593,-0.46719 l -0.23711,0 0,-0.30781 c 0.34726,0.03008 1.12226,0.03008 1.50898,0.03008 0.4082,0 1.31094,0 1.66914,-0.03008 l 0,0.30781 -0.32812,0 c -0.94375,0 -0.94375,0.13008 -0.94375,0.47735 l 0,5.26601 c 0,0.32774 0.01992,0.39688 0.48789,0.39688 l 1.02304,0 c 1.41993,0 1.62774,-0.58594 1.78789,-1.92696 l 0.24805,0 -0.27812,2.233989"
               inkscape:connector-curvature="0" />
            <path
               id="path3604"
               style="fill:#000000;fill-opacity:1;fill-rule:nonzero;stroke:none"
               d="m 12.7629,4.83594 c 0.0699,0.26718 0.1832,0.49804 0.7449,0.51289 0.0363,0 0.141,0.00625 0.141,0.15508 0,0.04218 -0.034,0.09804 -0.1047,0.09804 -0.2332,0 -0.4921,-0.02812 -0.7312,-0.02812 -0.1688,0 -0.577,0.02812 -0.7449,0.02812 -0.036,0 -0.141,0 -0.141,-0.15507 0,-0.0918 0.091,-0.09805 0.155,-0.09805 0.3301,-0.00781 0.45,-0.11172 0.45,-0.28672 0,-0.05625 -0.0082,-0.09219 -0.0281,-0.16914 L 11.7371,1.82695 9.95312,5.48203 C 9.89688,5.60195 9.88281,5.60195 9.71406,5.60195 l -0.96406,0 c -0.13281,0 -0.224999,0 -0.224999,-0.15507 0,-0.09805 0.083979,-0.09805 0.232809,-0.09805 0.14727,0 0.302351,-0.00781 0.449999,-0.03594 L 8.26602,1.55195 C 8.20195,1.28516 8.082809,1.07383 7.53516,1.05391 c -0.05,0 -0.14805,-0.00782 -0.14805,-0.148051 0,-0.076953 0.05586,-0.104687 0.10586,-0.104687 0.23086,0 0.49219,0.027734 0.73086,0.027734 0.16914,0 0.577339,-0.027734 0.74531,-0.027734 0.06992,0 0.14102,0.033984 0.14102,0.146875 0,0.098043 -0.08399,0.105863 -0.16211,0.105863 -0.44219,0.01406 -0.44219,0.19726 -0.44219,0.29492 0,0.02812 0,0.06328 0.02812,0.175 l 0.9,3.6 2.05192,-4.204689 C 11.5422,0.807031 11.5699,0.8 11.641,0.8 c 0.1129,0 0.1129,0.019922 0.1481,0.146875 L 12.766,4.83594"
               inkscape:connector-curvature="0" />
          </g>
        </g>
      </g>
    </g>
    <path
       style="color:#000000;fill:none;stroke:#000000;stroke-width:1px;stroke-linecap:butt;stroke-linejoin:miter;stroke-miterlimit:4;stroke-opacity:1;stroke-dasharray:none;stroke-dashoffset:0;marker:none;visibility:visible;display:inline;overflow:visible;enable-background:accumulate"
       d="m 340,452.36218 c 11.91737,6.0803 1.86032,25.1419 14,33 -7.46076,11.66949 6.37934,27.90514 -4,37"
       id="path3617"
       inkscape:connector-curvature="0"
       sodipodi:nodetypes="ccc" />
    <path
       style="color:#000000;fill:none;stroke:#000000;stroke-width:0.4;stroke-linecap:butt;stroke-linejoin:miter;stroke-miterlimit:4;stroke-opacity:1;stroke-dasharray:none;stroke-dashoffset:0;marker:none;visibility:visible;display:inline;overflow:visible;enable-background:accumulate"
       d="m 305,567.36218 -2,14"
       id="path7303"
       inkscape:connector-curvature="0" />
    <path
       inkscape:connector-curvature="0"
       id="path7338"
       d="m 310,562.36218 -2,14"
       style="color:#000000;fill:none;stroke:#000000;stroke-width:0.40000001;stroke-linecap:butt;stroke-linejoin:miter;stroke-miterlimit:4;stroke-opacity:1;stroke-dasharray:none;stroke-dashoffset:0;marker:none;visibility:visible;display:inline;overflow:visible;enable-background:accumulate" />
    <path
       style="color:#000000;fill:none;stroke:#000000;stroke-width:0.40000001;stroke-linecap:butt;stroke-linejoin:miter;stroke-miterlimit:4;stroke-opacity:1;stroke-dasharray:none;stroke-dashoffset:0;marker:none;visibility:visible;display:inline;overflow:visible;enable-background:accumulate"
       d="m 315,557.36218 -2,14"
       id="path7340"
       inkscape:connector-curvature="0" />
    <path
       inkscape:connector-curvature="0"
       id="path7342"
       d="m 320,552.36218 -2,14"
       style="color:#000000;fill:none;stroke:#000000;stroke-width:0.40000001;stroke-linecap:butt;stroke-linejoin:miter;stroke-miterlimit:4;stroke-opacity:1;stroke-dasharray:none;stroke-dashoffset:0;marker:none;visibility:visible;display:inline;overflow:visible;enable-background:accumulate" />
    <path
       style="color:#000000;fill:none;stroke:#000000;stroke-width:0.40000001;stroke-linecap:butt;stroke-linejoin:miter;stroke-miterlimit:4;stroke-opacity:1;stroke-dasharray:none;stroke-dashoffset:0;marker:none;visibility:visible;display:inline;overflow:visible;enable-background:accumulate"
       d="m 325,547.36218 -2,14"
       id="path7344"
       inkscape:connector-curvature="0" />
    <path
       inkscape:connector-curvature="0"
       id="path7346"
       d="m 330,542.36218 -2,14"
       style="color:#000000;fill:none;stroke:#000000;stroke-width:0.40000001;stroke-linecap:butt;stroke-linejoin:miter;stroke-miterlimit:4;stroke-opacity:1;stroke-dasharray:none;stroke-dashoffset:0;marker:none;visibility:visible;display:inline;overflow:visible;enable-background:accumulate" />
    <path
       style="color:#000000;fill:none;stroke:#000000;stroke-width:0.40000001;stroke-linecap:butt;stroke-linejoin:miter;stroke-miterlimit:4;stroke-opacity:1;stroke-dasharray:none;stroke-dashoffset:0;marker:none;visibility:visible;display:inline;overflow:visible;enable-background:accumulate"
       d="m 335,537.36218 -2,14"
       id="path7348"
       inkscape:connector-curvature="0" />
    <path
       inkscape:connector-curvature="0"
       id="path7350"
       d="m 340,532.36218 -2,14"
       style="color:#000000;fill:none;stroke:#000000;stroke-width:0.40000001;stroke-linecap:butt;stroke-linejoin:miter;stroke-miterlimit:4;stroke-opacity:1;stroke-dasharray:none;stroke-dashoffset:0;marker:none;visibility:visible;display:inline;overflow:visible;enable-background:accumulate" />
    <path
       style="color:#000000;fill:none;stroke:#000000;stroke-width:0.40000001;stroke-linecap:butt;stroke-linejoin:miter;stroke-miterlimit:4;stroke-opacity:1;stroke-dasharray:none;stroke-dashoffset:0;marker:none;visibility:visible;display:inline;overflow:visible;enable-background:accumulate"
       d="m 345,527.36218 -2,14"
       id="path7352"
       inkscape:connector-curvature="0" />
    <g
       transform="matrix(1.25,0,0,-1.25,331.30128,568.54236)"
       inkscape:label="latex-image-2"
       id="g7432">
      <g
         id="g7434" />
      <g
         id="g7436">
        <g
           clip-path="url(#clipPath7440)"
           id="g7438">
          <g
             clip-path="url(#clipPath7446)"
             id="g7444">
            <path
               id="path7450"
               style="fill:#000000;fill-opacity:1;fill-rule:nonzero;stroke:none"
               d="m 4.89492,8.230861 -4.698045,0 0,-0.279692 0.217187,0 c 0.693748,0 0.712888,-0.098049 0.712888,-0.423049 l 0,-4.725 c 0,-0.325 -0.01914,-0.42304 -0.712106,-0.42304 l -0.216797,0 0,-0.28008 c 0.316015,0.02695 1.019923,0.02695 1.371873,0.02695 0.36914,0 1.18906,0 1.51406,-0.02695 l 0,0.28008 -0.29687,0 c -0.8582,0 -0.8582,0.1168 -0.8582,0.43281 l 0,4.77813 c 0,0.29804 0.01914,0.36093 0.44218,0.36093 l 0.93008,0 c 1.28867,0 1.47774,-0.53086 1.62188,-1.74804 l 0.22695,0 -0.25312,2.02812"
               inkscape:connector-curvature="0" />
            <path
               id="path7452"
               style="fill:#000000;fill-opacity:1;fill-rule:nonzero;stroke:none"
               d="M 6.68398,1.28906 C 6.63398,1.075 6.62188,1.025 6.13203,1.025 c -0.11211,0 -0.18711,0 -0.18711,-0.137109 0,-0.086719 0.075,-0.086719 0.18789,-0.086719 l 2.23828,0 c 1.39102,0 2.72501,1.277738 2.72501,2.643748 0,0.91602 -0.6332,1.63594 -1.65508,1.63594 l -2.28008,0 c -0.12696,0 -0.20196,0 -0.20196,-0.13672 0,-0.08711 0.06914,-0.08711 0.20821,-0.08711 0.1,0 0.125,0 0.23789,-0.01211 0.125,-0.01211 0.13789,-0.025 0.13789,-0.08906 0,-0.01172 0,-0.04375 -0.025,-0.13672 L 6.68516,1.29219 6.68398,1.28906 z m 1.40391,3.35196 c 0.05,0.19492 0.05625,0.21406 0.319919,0.21406 l 0.802351,0 c 0.701949,0 1.29104,-0.35196 1.29104,-1.20313 0,-0.14492 -0.0621,-1.22812 -0.68909,-1.94414 C 9.567969,1.42695 9.028911,1.025 8.25703,1.025 l -0.85195,0 c -0.19414,0 -0.2,0.00586 -0.2,0.06289 0,0.00625 0,0.03906 0.025,0.1332 l 0.85781,3.41993"
               inkscape:connector-curvature="0" />
          </g>
        </g>
      </g>
    </g>
    <g
       transform="matrix(1.25,0,0,-1.25,197.91262,590.02087)"
       inkscape:label="latex-image-3"
       id="g7492">
      <g
         id="g7494" />
      <g
         id="g7496">
        <g
           clip-path="url(#clipPath7500)"
           id="g7498">
          <g
             clip-path="url(#clipPath7506)"
             id="g7504">
            <path
               id="path7510"
               style="fill:#000000;fill-opacity:1;fill-rule:nonzero;stroke:none"
               d="M 4.475,5.15586 C 4.38398,5.71484 4.01602,6.21992 3.31094,6.21992 2.76094,6.21992 2.175,6.07617 1.47188,5.37305 0.723828,4.625 0.660938,3.78594 0.660938,3.50586 c 0,-0.55898 0.396872,-1.60469 1.658982,-1.60469 2.14492,0 3.0832,3.02969 3.0832,4.31875 0,1.43399 -0.8371,2.335941 -1.94726,2.335941 -1.30781,0 -1.72188,-1.171881 -1.72188,-1.425001 0,-0.12695 0.07188,-0.31602 0.34219,-0.31602 0.29688,0 0.48594,0.27032 0.48594,0.47813 0,0.31601 -0.27813,0.31601 -0.42305,0.31601 0.39688,0.66719 1.03789,0.72188 1.29805,0.72188 0.65781,0 1.28906,-0.46992 1.28906,-1.63281 0,-0.35196 -0.05312,-0.81094 -0.24219,-1.54219 l -0.00898,0 z M 2.34688,2.15508 c -0.9918,0 -0.9918,0.92773 -0.9918,1.01875 0,0.24414 0.225,1.50508 0.59492,2.04726 0.36094,0.51407 0.80312,0.80196 1.36094,0.80196 0.9832,0 1.00195,-1.00899 1.00195,-1.18907 0,-0.65 -0.57695,-2.67812 -1.96601,-2.67812"
               inkscape:connector-curvature="0" />
            <path
               id="path7512"
               style="fill:#000000;fill-opacity:1;fill-rule:nonzero;stroke:none"
               d="m 11.7051,3.56094 -0.225,0 C 11.4352,3.32695 11.3988,3.11914 11.318,2.90312 11.273,2.75781 11.2449,2.68594 10.723,2.68594 l -0.7218,0 c 0.1168,0.50508 0.3968,0.93789 0.8027,1.5332 0.4231,0.64102 0.7941,1.26289 0.7941,1.975 0,1.25274 -1.2191,2.26289 -2.742139,2.26289 C 7.30586,8.45703 6.10586,7.42891 6.10586,6.19492 6.10586,5.48281 6.47617,4.86094 6.9,4.21992 7.29688,3.625 7.58594,3.19219 7.70312,2.68711 l -0.72226,0 c -0.52305,0 -0.55,0.07187 -0.59492,0.20781 -0.07188,0.2082 -0.1168,0.44219 -0.16211,0.66719 l -0.225,0 0.29726,-1.46094 1.44375,0 c 0.19805,0 0.225,0 0.225,0.18867 0,0.63125 -0.27968,1.425 -0.48672,2.00235 -0.18906,0.52265 -0.44101,1.23593 -0.44101,1.91289 0,1.4418 0.99101,2.05508 1.81094,2.05508 0.86601,0 1.82185,-0.64805 1.82185,-2.05508 0,-0.67696 -0.2437,-1.36211 -0.5051,-2.10196 C 10.0289,3.725 9.74219,2.91211 9.74219,2.29102 c 0,-0.18907 0.02695,-0.18907 0.23398,-0.18907 l 1.43283,0 0.298,1.46094"
               inkscape:connector-curvature="0" />
            <path
               id="path7514"
               style="fill:#000000;fill-opacity:1;fill-rule:nonzero;stroke:none"
               d="m 20.6941,5.04805 c 0.136,0 0.3079,0 0.3079,0.18007 0,0.18086 -0.1719,0.18086 -0.2981,0.18086 l -5.4,0 c -0.1269,0 -0.298,0 -0.298,-0.18086 0,-0.18007 0.1722,-0.18007 0.3062,-0.18007 l 5.3828,0 -8e-4,0 z M 20.7031,3.3 c 0.127,0 0.2981,0 0.2981,0.18008 0,0.18008 -0.1723,0.18008 -0.3082,0.18008 l -5.3828,0 c -0.134,0 -0.3063,0 -0.3063,-0.18008 C 15.0039,3.3 15.1762,3.3 15.302,3.3 l 5.4,0"
               inkscape:connector-curvature="0" />
            <path
               id="path7516"
               style="fill:#000000;fill-opacity:1;fill-rule:nonzero;stroke:none"
               d="m 28.9949,8.230861 -4.698,0 0,-0.279692 0.2172,0 c 0.6937,0 0.7129,-0.098049 0.7129,-0.423049 l 0,-4.725 c 0,-0.325 -0.0192,-0.42304 -0.7122,-0.42304 l -0.2168,0 0,-0.28008 c 0.3161,0.02695 1.02,0.02695 1.3719,0.02695 0.3692,0 1.1891,0 1.5141,-0.02695 l 0,0.28008 -0.2969,0 c -0.8582,0 -0.8582,0.1168 -0.8582,0.43281 l 0,4.77813 c 0,0.29804 0.0191,0.36093 0.4422,0.36093 l 0.9301,0 c 1.2886,0 1.4777,-0.53086 1.6218,-1.74804 l 0.227,0 -0.2531,2.02812"
               inkscape:connector-curvature="0" />
            <path
               id="path7518"
               style="fill:#000000;fill-opacity:1;fill-rule:nonzero;stroke:none"
               d="M 30.784,1.28906 C 30.734,1.075 30.7219,1.025 30.232,1.025 c -0.1121,0 -0.1871,0 -0.1871,-0.137109 0,-0.086719 0.075,-0.086719 0.1879,-0.086719 l 2.2383,0 c 1.391,0 2.725,1.277738 2.725,2.643748 0,0.91602 -0.6332,1.63594 -1.6551,1.63594 l -2.2801,0 c -0.1269,0 -0.2019,0 -0.2019,-0.13672 0,-0.08711 0.0691,-0.08711 0.2082,-0.08711 0.1,0 0.125,0 0.2379,-0.01211 0.125,-0.01211 0.1379,-0.025 0.1379,-0.08906 0,-0.01172 0,-0.04375 -0.025,-0.13672 L 30.7852,1.29219 30.784,1.28906 z m 1.4039,3.35196 c 0.05,0.19492 0.0562,0.21406 0.3199,0.21406 l 0.8024,0 c 0.7019,0 1.291,-0.35196 1.291,-1.20313 0,-0.14492 -0.0621,-1.22812 -0.6891,-1.94414 C 33.668,1.42695 33.1289,1.025 32.357,1.025 l -0.8519,0 c -0.1942,0 -0.2,0.00586 -0.2,0.06289 0,0.00625 0,0.03906 0.025,0.1332 l 0.8578,3.41993"
               inkscape:connector-curvature="0" />
            <path
               id="path7520"
               style="fill:#000000;fill-opacity:1;fill-rule:nonzero;stroke:none"
               d="m 43.609,7.16719 c 0,0.16289 0,0.325 -0.1809,0.325 -0.1801,0 -0.1801,-0.16211 -0.1801,-0.325 l 0,-3.26407 c 0,-1.35195 -1.4699,-1.64101 -2.1449,-1.64101 -0.4062,0 -0.975,0.08086 -1.4519,0.38789 -0.6953,0.44219 -0.6953,1.01914 -0.6953,1.26289 l 0,3.25508 c 0,0.16289 0,0.325 -0.1797,0.325 -0.1813,0 -0.1813,-0.16211 -0.1813,-0.325 l 0,-3.3 c 0,-1.36992 1.3801,-1.96602 2.5082,-1.96602 1.1719,0 2.5059,0.63086 2.5059,1.95586 l 0,3.30938"
               inkscape:connector-curvature="0" />
            <path
               id="path7522"
               style="fill:#000000;fill-opacity:1;fill-rule:nonzero;stroke:none"
               d="m 51.09491,8.230861 -4.69801,0 0,-0.279692 0.2172,0 c 0.6937,0 0.7129,-0.098049 0.7129,-0.423049 l 0,-4.725 c 0,-0.325 -0.0192,-0.42304 -0.7122,-0.42304 l -0.2168,0 0,-0.28008 c 0.3161,0.02695 1.02,0.02695 1.37191,0.02695 0.36919,0 1.18909,0 1.51409,-0.02695 l 0,0.28008 -0.2969,0 c -0.8582,0 -0.8582,0.1168 -0.8582,0.43281 l 0,4.77813 c 0,0.29804 0.0191,0.36093 0.4422,0.36093 l 0.9301,0 c 1.2886,0 1.4777,-0.53086 1.6218,-1.74804 l 0.227,0 -0.2531,2.02812"
               inkscape:connector-curvature="0" />
            <path
               id="path7524"
               style="fill:#000000;fill-opacity:1;fill-rule:nonzero;stroke:none"
               d="m 56.925,4.39688 c 0.06411,0.23828 0.16411,0.44531 0.666,0.4582 0.03091,0 0.125,0.00586 0.125,0.13789 0,0.03789 -0.03079,0.08789 -0.09409,0.08789 -0.20781,0 -0.43911,-0.025 -0.652,-0.025 -0.15191,0 -0.51401,0.025 -0.66601,0.025 -0.0309,0 -0.125,0 -0.125,-0.13672 0,-0.08125 0.0813,-0.08711 0.1383,-0.08711 0.2949,-0.00586 0.4019,-0.10195 0.4019,-0.2582 0,-0.05 -0.0062,-0.08086 -0.025,-0.15 L 56.0109,1.71602 54.41911,4.975 C 54.36911,5.08086 54.357,5.08086 54.207,5.08086 l -0.8582,0 c -0.1199,0 -0.20189,0 -0.20189,-0.13672 0,-0.08711 0.07499,-0.08711 0.20819,-0.08711 0.1308,0 0.26871,-0.00586 0.4,-0.03086 L 52.916,1.47305 C 52.86021,1.23594 52.7539,1.04609 52.26411,1.02812 c -0.0442,0 -0.13131,-0.00624 -0.13131,-0.131245 0,-0.06875 0.05,-0.09375 0.0942,-0.09375 0.2058,0 0.439,0.025 0.6519,0.025 0.15,0 0.5141,-0.025 0.6641,-0.025 0.0629,0 0.125,0.030859 0.125,0.130859 0,0.087896 -0.075,0.094136 -0.1442,0.094136 -0.3949,0.0129 -0.3949,0.17696 -0.3949,0.26407 0,0.025 0,0.05586 0.025,0.15586 l 0.8031,3.20781 1.83011,-3.746876 c 0.04999,-0.1 0.07499,-0.105859 0.13789,-0.105859 0.1,0 0.1,0.01875 0.1309,0.130859 L 56.9262,4.4"
               inkscape:connector-curvature="0" />
            <path
               id="path7526"
               style="fill:#000000;fill-opacity:1;fill-rule:nonzero;stroke:none"
               d="m 66.009,7.16719 c 0,0.16289 0,0.325 -0.1809,0.325 -0.1801,0 -0.1801,-0.16211 -0.1801,-0.325 l 0,-3.26407 c 0,-1.35195 -1.4699,-1.64101 -2.1449,-1.64101 -0.4062,0 -0.975,0.08086 -1.4519,0.38789 -0.6953,0.44219 -0.6953,1.01914 -0.6953,1.26289 l 0,3.25508 c 0,0.16289 0,0.325 -0.1797,0.325 -0.1813,0 -0.1813,-0.16211 -0.1813,-0.325 l 0,-3.3 c 0,-1.36992 1.3801,-1.96602 2.5082,-1.96602 1.1719,0 2.5059,0.63086 2.5059,1.95586 l 0,3.30938"
               inkscape:connector-curvature="0" />
            <path
               id="path7528"
               style="fill:#000000;fill-opacity:1;fill-rule:nonzero;stroke:none"
               d="m 73.39491,8.230861 -4.698,0 0,-0.279692 0.2172,0 c 0.69369,0 0.71289,-0.098049 0.71289,-0.423049 l 0,-4.725 c 0,-0.325 -0.0192,-0.42304 -0.7122,-0.42304 l -0.2168,0 0,-0.28008 c 0.31611,0.02695 1.02,0.02695 1.37191,0.02695 0.3692,0 1.18909,0 1.51409,-0.02695 l 0,0.28008 -0.2969,0 c -0.85819,0 -0.85819,0.1168 -0.85819,0.43281 l 0,4.77813 c 0,0.29804 0.01909,0.36093 0.4422,0.36093 l 0.93009,0 c 1.28861,0 1.47771,-0.53086 1.6218,-1.74804 l 0.227,0 -0.2531,2.02812"
               inkscape:connector-curvature="0" />
            <path
               id="path7530"
               style="fill:#000000;fill-opacity:1;fill-rule:nonzero;stroke:none"
               d="m 76.58791,4.64102 c 0.04409,0.17695 0.05619,0.19492 0.1949,0.21406 l 0.4,0 c 0.58319,0 1.30309,0 1.30309,-0.64492 0,-0.25821 -0.11869,-0.65313 -0.41209,-0.87813 -0.25781,-0.2 -0.6449,-0.3 -1.0777,-0.3 l -0.80821,0 0.40001,1.60899 z m 1.134,-1.71094 c 0.7453,0.17695 1.409,0.62695 1.409,1.18398 0,0.53906 -0.6387,0.96602 -1.54691,0.96602 l -1.9231,0 c -0.1199,0 -0.2019,0 -0.2019,-0.13711 0,-0.08711 0.075,-0.08711 0.2019,-0.08711 0.0063,0 0.125,0 0.2379,-0.01172 0.13131,-0.01211 0.1442,-0.025 0.1442,-0.08906 0,-0.01211 0,-0.04414 -0.025,-0.13711 L 75.1852,1.29102 C 75.13521,1.07695 75.123,1.02695 74.6328,1.02695 c -0.1058,0 -0.18669,0 -0.18669,-0.130856 0,-0.06211 0.04369,-0.094141 0.09999,-0.094141 0.1187,0 0.2629,0.019141 0.3891,0.019141 0.11871,0 0.30001,0.005859 0.4128,0.005859 0.125,0 0.27,-0.005859 0.402,-0.005859 0.13091,0 0.2879,-0.019141 0.41991,-0.019141 0.03129,0 0.13129,0 0.13129,0.130859 0,0.094138 -0.06209,0.094138 -0.2082,0.094138 -0.1,0 -0.125,0 -0.2371,0.01289 -0.13679,0.01914 -0.13679,0.03125 -0.13679,0.09532 0,0.00586 0,0.04375 0.02499,0.13789 l 0.3938,1.58398 0.8531,0 c 0.53911,0 0.7699,-0.26914 0.7699,-0.56406 0,-0.08086 -0.0558,-0.29414 -0.08709,-0.43711 -0.075,-0.28867 -0.1,-0.38281 -0.1,-0.48867 0,-0.495315 0.4582,-0.689065 0.92029,-0.689065 0.57701,0 0.82781,0.614065 0.82781,0.726955 0,0.01875 -0.01171,0.08789 -0.10781,0.08789 -0.0813,0 -0.0942,-0.04414 -0.1121,-0.10586 -0.0872,-0.27695 -0.31919,-0.533204 -0.5829,-0.533204 -0.1621,0 -0.28119,0.069141 -0.28119,0.408204 0,0.15586 0.0383,0.48281 0.06329,0.65195 0.025,0.16875 0.025,0.23086 0.025,0.29375 0,0.075 0,0.27735 -0.17499,0.46407 -0.1192,0.13124 -0.2891,0.21328 -0.4274,0.26328"
               inkscape:connector-curvature="0" />
          </g>
        </g>
      </g>
    </g>
  </g>
</svg>
