<?xml version="1.0" encoding="UTF-8" standalone="no"?>
<!-- Created with Inkscape (http://www.inkscape.org/) -->

<svg
   xmlns:dc="http://purl.org/dc/elements/1.1/"
   xmlns:cc="http://creativecommons.org/ns#"
   xmlns:rdf="http://www.w3.org/1999/02/22-rdf-syntax-ns#"
   xmlns:svg="http://www.w3.org/2000/svg"
   xmlns="http://www.w3.org/2000/svg"
   xmlns:sodipodi="http://sodipodi.sourceforge.net/DTD/sodipodi-0.dtd"
   xmlns:inkscape="http://www.inkscape.org/namespaces/inkscape"
   width="210mm"
   height="297mm"
   id="svg2"
   version="1.1"
   inkscape:version="0.48.5 r10040"
   sodipodi:docname="Zeichnung-1.eps">
  <defs
     id="defs4">
    <marker
       inkscape:stockid="Arrow2Lend"
       orient="auto"
       refY="0.0"
       refX="0.0"
       id="Arrow2Lend"
       style="overflow:visible;">
      <path
         id="path3899"
         style="fill-rule:evenodd;stroke-width:0.62500000;stroke-linejoin:round;"
         d="M 8.7185878,4.0337352 L -2.2072895,0.016013256 L 8.7185884,-4.0017078 C 6.9730900,-1.6296469 6.9831476,1.6157441 8.7185878,4.0337352 z "
         transform="scale(1.1) rotate(180) translate(1,0)" />
    </marker>
    <marker
       inkscape:stockid="TriangleOutL"
       orient="auto"
       refY="0.0"
       refX="0.0"
       id="TriangleOutL"
       style="overflow:visible">
      <path
         id="path4020"
         d="M 5.77,0.0 L -2.88,5.0 L -2.88,-5.0 L 5.77,0.0 z "
         style="fill-rule:evenodd;stroke:#000000;stroke-width:1.0pt"
         transform="scale(0.8)" />
    </marker>
    <marker
       inkscape:stockid="Arrow2Lstart"
       orient="auto"
       refY="0.0"
       refX="0.0"
       id="Arrow2Lstart"
       style="overflow:visible">
      <path
         id="path3896"
         style="fill-rule:evenodd;stroke-width:0.62500000;stroke-linejoin:round"
         d="M 8.7185878,4.0337352 L -2.2072895,0.016013256 L 8.7185884,-4.0017078 C 6.9730900,-1.6296469 6.9831476,1.6157441 8.7185878,4.0337352 z "
         transform="scale(1.1) translate(1,0)" />
    </marker>
    <marker
       inkscape:stockid="Arrow1Lend"
       orient="auto"
       refY="0.0"
       refX="0.0"
       id="Arrow1Lend"
       style="overflow:visible;">
      <path
         id="path3881"
         d="M 0.0,0.0 L 5.0,-5.0 L -12.5,0.0 L 5.0,5.0 L 0.0,0.0 z "
         style="fill-rule:evenodd;stroke:#000000;stroke-width:1.0pt;"
         transform="scale(0.8) rotate(180) translate(12.5,0)" />
    </marker>
    <marker
       inkscape:stockid="Arrow1Lstart"
       orient="auto"
       refY="0.0"
       refX="0.0"
       id="Arrow1Lstart"
       style="overflow:visible">
      <path
         id="path3878"
         d="M 0.0,0.0 L 5.0,-5.0 L -12.5,0.0 L 5.0,5.0 L 0.0,0.0 z "
         style="fill-rule:evenodd;stroke:#000000;stroke-width:1.0pt"
         transform="scale(0.8) translate(12.5,0)" />
    </marker>
    <clipPath
       id="clipPath3036"
       clipPathUnits="userSpaceOnUse">
      <path
         id="path3038"
         d="M 0,0 8,0 8,9 0,9 0,0 z" />
    </clipPath>
    <clipPath
       id="clipPath3030"
       clipPathUnits="userSpaceOnUse">
      <path
         id="path3032"
         d="m 0,0.0371094 8,0 L 8,9 0,9 0,0.0371094 z" />
    </clipPath>
    <clipPath
       id="clipPath3096"
       clipPathUnits="userSpaceOnUse">
      <path
         id="path3098"
         d="M 0,0 8,0 8,9 0,9 0,0 z" />
    </clipPath>
    <clipPath
       id="clipPath3090"
       clipPathUnits="userSpaceOnUse">
      <path
         id="path3092"
         d="m 0,0.0371094 8,0 L 8,9 0,9 0,0.0371094 z" />
    </clipPath>
  </defs>
  <sodipodi:namedview
     id="base"
     pagecolor="#ffffff"
     bordercolor="#666666"
     borderopacity="1.0"
     inkscape:pageopacity="0.0"
     inkscape:pageshadow="2"
     inkscape:zoom="2.8"
     inkscape:cx="270.89286"
     inkscape:cy="520"
     inkscape:document-units="px"
     inkscape:current-layer="layer1"
     showgrid="true"
     inkscape:window-width="1267"
     inkscape:window-height="636"
     inkscape:window-x="0"
     inkscape:window-y="0"
     inkscape:window-maximized="0">
    <inkscape:grid
       type="xygrid"
       id="grid2985" />
  </sodipodi:namedview>
  <metadata
     id="metadata7">
    <rdf:RDF>
      <cc:Work
         rdf:about="">
        <dc:format>image/svg+xml</dc:format>
        <dc:type
           rdf:resource="http://purl.org/dc/dcmitype/StillImage" />
        <dc:title></dc:title>
      </cc:Work>
    </rdf:RDF>
  </metadata>
  <g
     inkscape:label="Ebene 1"
     inkscape:groupmode="layer"
     id="layer1">
    <g
       transform="matrix(1.25,0,0,-1.25,264.57374,523.47497)"
       inkscape:label="latex-image-1"
       id="g3022">
      <g
         id="g3024" />
      <g
         id="g3026">
        <g
           clip-path="url(#clipPath3030)"
           id="g3028">
          <g
             clip-path="url(#clipPath3036)"
             id="g3034">
            <path
               id="path3040"
               style="fill:#000000;fill-opacity:1;fill-rule:nonzero;stroke:none"
               d="m 4.45312,8.25781 c 0,0.00938 0,0.1 -0.11718,0.1 -0.13594,0 -0.9918,-0.08086 -1.14492,-0.1 C 3.11914,8.25 3.06406,8.20508 3.06406,8.08789 c 0,-0.10781 0.08086,-0.10781 0.21602,-0.10781 0.43281,0 0.45195,-0.064061 0.45195,-0.15508 L 3.70508,7.64492 3.16289,5.50781 C 3.00195,5.84219 2.73984,6.08594 2.33516,6.08594 c -1.05625,0 -2.173051,-1.32696 -2.173051,-2.6418 0,-0.84805 0.494922,-1.44219 1.198051,-1.44219 0.18086,0 0.63086,0.03594 1.17265,0.675 0.07227,-0.37812 0.38828,-0.675 0.82031,-0.675 0.31602,0 0.52188,0.20586 0.6668,0.49493 0.15313,0.325 0.26992,0.875 0.26992,0.89218 0,0.09102 -0.08086,0.09102 -0.10781,0.09102 -0.09101,0 -0.1,-0.03594 -0.12695,-0.16211 C 3.90195,2.73203 3.73906,2.19883 3.36914,2.19883 c -0.24414,0 -0.27031,0.23633 -0.27031,0.41601 0,0.21602 0.01914,0.28008 0.05508,0.43321 L 4.45195,8.25898 4.45312,8.25781 z M 2.57695,3.17305 C 2.53281,3.01094 2.53281,2.99219 2.39688,2.83906 2,2.34414 1.63008,2.19805 1.37812,2.19805 c -0.451948,0 -0.576948,0.49687 -0.576948,0.84804 0,0.45 0.287888,1.55899 0.494918,1.975 0.28008,0.53086 0.68594,0.86602 1.04493,0.86602 0.58593,0 0.71289,-0.73906 0.71289,-0.79414 0,-0.05508 -0.0168,-0.10781 -0.02696,-0.15313 L 2.575,3.17305"
               inkscape:connector-curvature="0" />
            <path
               id="path3042"
               style="fill:#000000;fill-opacity:1;fill-rule:nonzero;stroke:none"
               d="m 6.49805,4.78398 c 0,0.16993 -0.01211,0.17696 -0.18711,0.17696 C 5.90898,4.56602 5.34102,4.55898 5.08281,4.55898 l 0,-0.225 c 0.15,0 0.56407,0 0.90938,0.175 l 0,-3.19492 c 0,-0.2082 0,-0.28906 -0.62735,-0.28906 l -0.23867,0 0,-0.225 c 0.11289,0.005859 0.88399,0.025 1.11602,0.025 0.19375,0 0.98398,-0.019141 1.121869,-0.025 l 0,0.225 -0.239059,0 c -0.62695,0 -0.62695,0.08086 -0.62695,0.28906 l 0,3.46992"
               inkscape:connector-curvature="0" />
          </g>
        </g>
      </g>
    </g>
    <g
       transform="matrix(1.25,0,0,-1.25,267.37646,553.56482)"
       inkscape:label="latex-image-2"
       id="g3082">
      <g
         id="g3084" />
      <g
         id="g3086">
        <g
           clip-path="url(#clipPath3090)"
           id="g3088">
          <g
             clip-path="url(#clipPath3096)"
             id="g3094">
            <path
               id="path3100"
               style="fill:#000000;fill-opacity:1;fill-rule:nonzero;stroke:none"
               d="m 4.45312,8.25781 c 0,0.00938 0,0.1 -0.11718,0.1 -0.13594,0 -0.9918,-0.08086 -1.14492,-0.1 C 3.11914,8.25 3.06406,8.20508 3.06406,8.08789 c 0,-0.10781 0.08086,-0.10781 0.21602,-0.10781 0.43281,0 0.45195,-0.064061 0.45195,-0.15508 L 3.70508,7.64492 3.16289,5.50781 C 3.00195,5.84219 2.73984,6.08594 2.33516,6.08594 c -1.05625,0 -2.173051,-1.32696 -2.173051,-2.6418 0,-0.84805 0.494922,-1.44219 1.198051,-1.44219 0.18086,0 0.63086,0.03594 1.17265,0.675 0.07227,-0.37812 0.38828,-0.675 0.82031,-0.675 0.31602,0 0.52188,0.20586 0.6668,0.49493 0.15313,0.325 0.26992,0.875 0.26992,0.89218 0,0.09102 -0.08086,0.09102 -0.10781,0.09102 -0.09101,0 -0.1,-0.03594 -0.12695,-0.16211 C 3.90195,2.73203 3.73906,2.19883 3.36914,2.19883 c -0.24414,0 -0.27031,0.23633 -0.27031,0.41601 0,0.21602 0.01914,0.28008 0.05508,0.43321 L 4.45195,8.25898 4.45312,8.25781 z M 2.57695,3.17305 C 2.53281,3.01094 2.53281,2.99219 2.39688,2.83906 2,2.34414 1.63008,2.19805 1.37812,2.19805 c -0.451948,0 -0.576948,0.49687 -0.576948,0.84804 0,0.45 0.287888,1.55899 0.494918,1.975 0.28008,0.53086 0.68594,0.86602 1.04493,0.86602 0.58593,0 0.71289,-0.73906 0.71289,-0.79414 0,-0.05508 -0.0168,-0.10781 -0.02696,-0.15313 L 2.575,3.17305"
               inkscape:connector-curvature="0" />
            <path
               id="path3102"
               style="fill:#000000;fill-opacity:1;fill-rule:nonzero;stroke:none"
               d="m 7.56406,1.94102 -0.21211,0 C 7.332809,1.80391 7.27109,1.43281 7.18984,1.37109 7.13789,1.33398 6.65703,1.33398 6.56992,1.33398 l -1.15273,0 C 6.075,1.91719 6.29414,2.09219 6.669919,2.38711 7.13281,2.75586 7.56484,3.14492 7.56484,3.73984 c 0,0.75821 -0.66367,1.22227 -1.46601,1.22227 -0.77774,0 -1.30274,-0.54492 -1.30274,-1.12227 0,-0.31992 0.26875,-0.35195 0.33086,-0.35195 0.15,0 0.33321,0.1082 0.33321,0.3332 0,0.11289 -0.04414,0.33086 -0.37032,0.33086 0.19414,0.44493 0.62032,0.58321 0.91602,0.58321 0.62695,0 0.951949,-0.48711 0.951949,-0.99532 0,-0.54492 -0.386719,-0.97773 -0.588669,-1.20273 L 4.86016,1.04492 C 4.79805,0.989062 4.79805,0.976172 4.79805,0.801172 l 2.58086,0 0.18828,1.141018"
               inkscape:connector-curvature="0" />
          </g>
        </g>
      </g>
    </g>
    <path
       style="color:#000000;fill:none;stroke:#000000;stroke-width:1px;stroke-linecap:butt;stroke-linejoin:miter;stroke-miterlimit:4;stroke-opacity:1;stroke-dasharray:none;stroke-dashoffset:0;marker:none;marker-end:url(#Arrow2Lend);visibility:visible;display:inline;overflow:visible;enable-background:accumulate"
       d="m 266.19385,532.1986 25,-25"
       id="path5452"
       inkscape:connector-curvature="0" />
    <path
       style="color:#000000;fill:none;stroke:#000000;stroke-width:1px;stroke-linecap:butt;stroke-linejoin:miter;stroke-miterlimit:4;stroke-opacity:1;stroke-dasharray:none;stroke-dashoffset:0;marker:none;marker-end:url(#Arrow2Lend);visibility:visible;display:inline;overflow:visible;enable-background:accumulate"
       d="m 266.19385,532.1986 25,25"
       id="path5644"
       inkscape:connector-curvature="0"
       sodipodi:nodetypes="cc" />
  </g>
</svg>
